<svg version="1.1" xmlns="http://www.w3.org/2000/svg" xmlns:xlink="http://www.w3.org/1999/xlink" width="890.82195" height="478.00466" viewBox="0,0,890.82195,478.00466"><g transform="translate(227.76269,118.38641)"><g data-paper-data="{&quot;isPaintingLayer&quot;:true}" fill-rule="nonzero" stroke-linecap="butt" stroke-linejoin="miter" stroke-miterlimit="10" stroke-dasharray="" stroke-dashoffset="0" style="mix-blend-mode: normal"><path d="M-119.80402,-93.04089h715.03836v427.77875l-713.62023,-22.12648z" fill="#99ffff" stroke="#ccffff" stroke-width="2.00406"/><path d="M485.71902,260.76106c8.45812,8.38104 13.6941,19.95442 13.6941,32.72636c0,12.77195 -5.23597,24.34532 -13.6941,32.72636c-8.45813,8.37977 -20.13933,13.56718 -33.0307,13.56718c-12.89138,0 -24.57257,-5.18741 -33.0307,-13.56718c-8.45813,-8.38104 -13.69411,-19.95442 -13.69411,-32.72636c0,-12.77195 5.23598,-24.34532 13.69411,-32.72636c8.45813,-8.37977 20.13933,-13.56718 33.0307,-13.56718c12.89138,0 24.57257,5.18741 33.0307,13.56718z" data-paper-data="{&quot;index&quot;:null}" fill="#00cc44" stroke="#00cc44" stroke-width="2.88236"/><path d="M373.30195,256.10893c7.81519,-0.47055 16.6116,3.73647 21.39996,11.92217c5.09861,8.67655 3.70153,21.61718 3.27073,32.59572c0.21027,11.29689 1.07187,24.23625 -3.92488,33.42012c-4.61641,8.50659 -13.02501,14.715 -20.74582,14.64905c-11.48589,-0.09766 -24.57257,-5.18741 -33.0307,-13.56718c-8.45813,-8.38104 -13.69411,-19.95441 -13.69411,-32.72636c0,-12.77194 5.23598,-24.34532 13.69411,-32.72636c8.45813,-8.37977 21.55322,-12.88862 33.0307,-13.56718z" fill="#00cc44" stroke="#00cc44" stroke-width="2.88236"/><path d="M138.14516,245.93889c9.99739,0 19.05628,3.3877 25.61564,8.86019c6.55936,5.47333 10.61991,13.03146 10.61991,21.37231c0,8.34085 -4.06055,15.89898 -10.61991,21.37231c-6.55936,5.47249 -15.61825,8.86019 -25.61564,8.86019c-9.99739,0 -19.05628,-3.3877 -25.61564,-8.86019c-6.55936,-5.47333 -10.61991,-13.03146 -10.61991,-21.37231c0,-8.34085 4.06055,-15.89898 10.61991,-21.37231c6.55936,-5.4725 15.61825,-8.86019 25.61564,-8.86019z" fill="#00cc44" stroke="#00cc44" stroke-width="2.06637"/><path d="M211.72434,239.16245c12.89137,0 24.57257,5.18741 33.0307,13.56718c8.45813,8.38104 13.69411,19.95441 13.69411,32.72636c0,12.77194 -5.23598,24.34532 -13.69411,32.72636c-8.45813,8.37977 -20.13932,13.56718 -33.0307,13.56718c-12.89137,0 -24.57257,-5.18741 -33.0307,-13.56718c-8.45813,-8.38104 -13.69411,-19.95441 -13.69411,-32.72636c0,-12.77194 5.23598,-24.34532 13.69411,-32.72636c8.45813,-8.37977 20.13932,-13.56718 33.0307,-13.56718z" fill="#00cc44" stroke="#00cc44" stroke-width="2.88236"/><path d="M293.22135,247.70439c12.89137,0 24.57257,5.18741 33.0307,13.56718c8.45813,8.38104 13.69411,19.95441 13.69411,32.72636c0,12.77194 -5.23598,24.34532 -13.69411,32.72636c-8.45813,8.37977 -20.13932,13.56718 -33.0307,13.56718c-12.89137,0 -24.57257,-5.18741 -33.0307,-13.56718c-8.45813,-8.38104 -13.6941,-19.95441 -13.6941,-32.72636c0,-12.77194 5.23598,-24.34532 13.6941,-32.72636c8.45813,-8.37977 20.13932,-13.56718 33.0307,-13.56718z" fill="#00cc44" stroke="#00cc44" stroke-width="2.88236"/><path d="M84.96158,252.46942c3.85504,-2.82778 10.50359,9.08301 14.64707,16.89459c3.12237,5.87339 6.65627,13.188 6.65627,21.37231c0,8.18432 -2.61454,17.81812 -6.65627,21.37231l-13.35252,-3.31563l-0.63592,-30.7709c-0.20849,-10.24674 -3.79781,-24.05099 -0.65863,-25.55268z" fill="#00cc44" stroke="#00cc44" stroke-width="1.65924"/><path d="M87.5565,282.39392l304.76017,-2.64017l5.18741,52.80336l-311.24443,4.40028z" fill="#00cc44" stroke="#00cc44" stroke-width="2"/><path d="M-201.46134,256.60441c11.47748,0.67856 24.57257,5.18741 33.0307,13.56718c8.45813,8.38104 13.69411,19.95442 13.69411,32.72636c0,12.77195 -5.23598,24.34532 -13.69411,32.72636c-8.45813,8.37977 -21.54481,13.46952 -33.0307,13.56718c-7.72081,0.06595 -16.12941,-6.14246 -20.74582,-14.64905c-4.99675,-9.18387 -4.13515,-22.12323 -3.92488,-33.42012c-0.4308,-10.97854 -1.82788,-23.91917 3.27073,-32.59572c4.78836,-8.1857 13.58477,-12.39272 21.39996,-11.92217z" data-paper-data="{&quot;index&quot;:null}" fill="#00cc44" stroke="#00cc44" stroke-width="2.88236"/><path d="M59.31108,255.29458c6.55936,5.47333 10.61991,13.03146 10.61991,21.37231c0,8.34085 -4.06055,15.89898 -10.61991,21.37231c-6.55936,5.47249 -15.61825,8.86019 -25.61564,8.86019c-9.99739,0 -19.05628,-3.3877 -25.61564,-8.86019c-6.55936,-5.47333 -10.61991,-13.03146 -10.61991,-21.37231c0,-8.34085 4.06055,-15.89898 10.61991,-21.37231c6.55936,-5.47249 15.61825,-8.86019 25.61564,-8.86019c9.99739,0 19.05628,3.38769 25.61564,8.86019z" data-paper-data="{&quot;index&quot;:null}" fill="#00cc44" stroke="#00cc44" stroke-width="2.06637"/><path d="M-6.85304,253.22513c8.45813,8.38104 13.69411,19.95442 13.69411,32.72636c0,12.77195 -5.23598,24.34532 -13.69411,32.72636c-8.45813,8.37977 -20.13933,13.56718 -33.0307,13.56718c-12.89138,0 -24.57257,-5.18741 -33.0307,-13.56718c-8.45813,-8.38104 -13.69411,-19.95442 -13.69411,-32.72636c0,-12.77195 5.23598,-24.34532 13.69411,-32.72636c8.45813,-8.37977 20.13933,-13.56718 33.0307,-13.56718c12.89138,0 24.57257,5.18741 33.0307,13.56718z" data-paper-data="{&quot;index&quot;:null}" fill="#00cc44" stroke="#00cc44" stroke-width="2.88236"/><path d="M-88.35005,261.76707c8.45812,8.38104 13.6941,19.95442 13.6941,32.72636c0,12.77195 -5.23597,24.34532 -13.6941,32.72636c-8.45813,8.37977 -20.13933,13.56718 -33.0307,13.56718c-12.89138,0 -24.57257,-5.18741 -33.0307,-13.56718c-8.45813,-8.38104 -13.69411,-19.95442 -13.69411,-32.72636c0,-12.77195 5.23598,-24.34532 13.69411,-32.72636c8.45813,-8.37977 20.13933,-13.56718 33.0307,-13.56718c12.89138,0 24.57257,5.18741 33.0307,13.56718z" data-paper-data="{&quot;index&quot;:null}" fill="#00cc44" stroke="#00cc44" stroke-width="2.88236"/><path d="M86.22039,278.5176l-0.63592,30.7709l-13.35252,3.31563c-4.04173,-3.55419 -6.65627,-13.18799 -6.65627,-21.37231c0,-8.18431 3.5339,-15.49892 6.65627,-21.37231c4.14348,-7.81158 10.79203,-19.72237 14.64707,-16.89459c3.13918,1.50169 -0.45014,15.30594 -0.65863,25.55268z" data-paper-data="{&quot;index&quot;:null}" fill="#00cc44" stroke="#00cc44" stroke-width="1.65924"/><path d="M85.58095,337.45289l-311.24443,-4.40028l5.18741,-52.80336l304.76017,2.64017z" data-paper-data="{&quot;index&quot;:null}" fill="#00cc44" stroke="#00cc44" stroke-width="2"/><path d="M372.60773,255.5984c11.47748,0.67856 24.57257,5.18741 33.0307,13.56718c8.45813,8.38104 13.69411,19.95442 13.69411,32.72636c0,12.77195 -5.23598,24.34532 -13.69411,32.72636c-8.45813,8.37977 -21.54481,13.46952 -33.0307,13.56718c-7.72081,0.06595 -16.12941,-6.14246 -20.74582,-14.64905c-4.99675,-9.18387 -4.13515,-22.12323 -3.92488,-33.42012c-0.4308,-10.97854 -1.82788,-23.91917 3.27073,-32.59572c4.78836,-8.1857 13.58477,-12.39272 21.39996,-11.92217z" data-paper-data="{&quot;index&quot;:null}" fill="#00cc44" stroke="#00cc44" stroke-width="2.88236"/><path d="M-120.06748,336.36145h720.65655v21.94274h-720.65655z" fill="#663b00" stroke="#663b00" stroke-width="2.62812"/><path d="M633.38015,254.28857c6.55936,5.47333 10.61991,13.03146 10.61991,21.37231c0,8.34085 -4.06055,15.89898 -10.61991,21.37231c-6.55936,5.47249 -15.61825,8.86019 -25.61564,8.86019c-9.99739,0 -19.05628,-3.3877 -25.61564,-8.86019c-6.55936,-5.47333 -10.61991,-13.03146 -10.61991,-21.37231c0,-8.34085 4.06055,-15.89898 10.61991,-21.37231c6.55936,-5.47249 15.61825,-8.86019 25.61564,-8.86019c9.99739,0 19.05628,3.38769 25.61564,8.86019z" data-paper-data="{&quot;index&quot;:null}" fill="#00cc44" stroke="#00cc44" stroke-width="2.06637"/><path d="M567.21603,252.21912c8.45813,8.38104 13.69411,19.95442 13.69411,32.72636c0,12.77195 -5.23598,24.34532 -13.69411,32.72636c-8.45813,8.37977 -20.13933,13.56718 -33.0307,13.56718c-12.89138,0 -24.57257,-5.18741 -33.0307,-13.56718c-8.45813,-8.38104 -13.69411,-19.95442 -13.69411,-32.72636c0,-12.77195 5.23598,-24.34532 13.69411,-32.72636c8.45813,-8.37977 20.13933,-13.56718 33.0307,-13.56718c12.89138,0 24.57257,5.18741 33.0307,13.56718z" data-paper-data="{&quot;index&quot;:null}" fill="#00cc44" stroke="#00cc44" stroke-width="2.88236"/><path d="M660.28946,277.51159l-0.63592,30.7709l-13.35252,3.31563c-4.04173,-3.55419 -6.65627,-13.18799 -6.65627,-21.37231c0,-8.18431 3.5339,-15.49892 6.65627,-21.37231c4.14348,-7.81158 10.79203,-19.72237 14.64707,-16.89459c3.13918,1.50169 -0.45014,15.30594 -0.65863,25.55268z" data-paper-data="{&quot;index&quot;:null}" fill="#00cc44" stroke="#00cc44" stroke-width="1.65924"/><path d="M659.65002,336.44688l-311.24443,-4.40028l5.18741,-52.80336l304.76017,2.64017z" data-paper-data="{&quot;index&quot;:null}" fill="#00cc44" stroke="#00cc44" stroke-width="2"/><path d="M-176.66667,-43.31134v-75.07508h779.66967v75.07508z" fill="#99ffff" stroke="none" stroke-width="0"/></g></g></svg>