<svg version="1.1" xmlns="http://www.w3.org/2000/svg" xmlns:xlink="http://www.w3.org/1999/xlink" width="88.76343" height="330.62505" viewBox="0,0,88.76343,330.62505"><g transform="translate(-195.66828,-34.4991)"><g data-paper-data="{&quot;isPaintingLayer&quot;:true}" fill-rule="nonzero" stroke="none" stroke-linecap="butt" stroke-linejoin="miter" stroke-miterlimit="10" stroke-dasharray="" stroke-dashoffset="0" style="mix-blend-mode: normal"><path d="M211.9,147.1h56.3v212.9h-56.3z" fill="#40b4e5" stroke-width="1"/><path d="M222.1,158.1h7.8v16.1h-7.8z" fill="#79cef3" stroke-width="1"/><path d="M251.3,158.1h7.8v16.1h-7.8z" fill="#79cef3" stroke-width="1"/><path d="M231.8,176.4h7.8v16.1h-7.8z" fill="#79cef3" stroke-width="1"/><path d="M231.8,230.5h7.8v16.1h-7.8z" fill="#79cef3" stroke-width="1"/><path d="M220.7,230.5h7.8v16.1h-7.8z" fill="#79cef3" stroke-width="1"/><path d="M252.8,300.7h7.8v16.1h-7.8z" fill="#79cef3" stroke-width="1"/><path d="M241.7,300.7h7.8v16.1h-7.8z" fill="#79cef3" stroke-width="1"/><path d="M231.8,212.6h7.8v16.1h-7.8z" fill="#79cef3" stroke-width="1"/><path d="M231.8,248.5h7.8v16.1h-7.8z" fill="#79cef3" stroke-width="1"/><path d="M231.8,279.7h7.8v16.1h-7.8z" fill="#79cef3" stroke-width="1"/><path d="M232.7,322.3h7.8v16.1h-7.8z" fill="#79cef3" stroke-width="1"/><path d="M220.7,279.7h7.8v16.1h-7.8z" fill="#79cef3" stroke-width="1"/><path d="M220.4,322.2h7.8v16.1h-7.8z" fill="#79cef3" stroke-width="1"/><path d="M251.3,176.4h7.8v16.1h-7.8z" fill="#79cef3" stroke-width="1"/><path d="M195.66828,365.12415v-235.54542h88.76343v235.54542z" fill="none" stroke-width="0"/><path d="M196.5,359v-285h81v285z" fill="none" stroke-width="0"/><path d="M201.97232,360.78876v-326.28966h74.85947v326.28966z" fill="none" stroke-width="0"/></g></g></svg>