<svg version="1.1" xmlns="http://www.w3.org/2000/svg" xmlns:xlink="http://www.w3.org/1999/xlink" width="195" height="282.6565" viewBox="0,0,195,282.6565"><g transform="translate(-137.5,-93.3435)"><g data-paper-data="{&quot;isPaintingLayer&quot;:true}" fill-rule="nonzero" stroke-linecap="butt" stroke-linejoin="miter" stroke-miterlimit="10" stroke-dasharray="" stroke-dashoffset="0" style="mix-blend-mode: normal"><path d="M242.5,240l42.4,7l-1,112.3h-87.8l-1,-108.8l47.4,-10.5" fill="#c3e8f3" stroke="none" stroke-width="1"/><path d="M203.6,253.5l-1,-13l40.4,-10l37.4,6.5l0.5,10.5" fill="#c3e8f3" stroke="none" stroke-width="1"/><path d="M207.6,241.5l2,-13l32.9,-7l29.9,7l2,8" fill="#c3e8f3" stroke="none" stroke-width="1"/><path d="M247.5,227l2,-35.7l10.9,3.2l4.6,34" fill="#7dc9e4" stroke="none" stroke-width="1"/><path d="M214.6,230l6.4,-32.9l27.1,-6l-0.6,33.4" fill="#c3e8f3" stroke="none" stroke-width="1"/><path d="M246.8,223c0,0 1.4,-24 2.2,-31.6" fill="none" stroke="#64c7ea" stroke-width="2.2329"/><path d="M242,240.1l0.5,-0.1l42.4,7l-1,113h-41.9v-119.9" fill="#7dc9e4" stroke="none" stroke-width="1"/><g fill="#7dc9e4" stroke="none" stroke-width="1"><path d="M280.4,237l0.5,10.5l-38.9,3v-11.6l32.4,-2.4l-0.1,-0.5l6.1,1"/><path d="M274.3,236l0.1,0.5l-32.4,2.4v-17.2l0.5,-0.2l29.9,7l1.9,7.5"/></g><path d="M194.9,250.5l47.3,-10.8l42.9,7.1" fill="none" stroke="#64c7ea" stroke-width="1.4886"/><path d="M202.1,240.3c8.3,-2 39.4,-10.8 39.4,-10.8l38.9,7.5" fill="none" stroke="#64c7ea" stroke-width="1.4886"/><path d="M209.4,229c6.6,-1.4 32.3,-7.8 32.3,-7.8l30.8,6.7" fill="none" stroke="#64c7ea" stroke-width="1.4886"/><path d="M227.9,202.9l-2.4,13.7" fill="none" stroke="#64c7ea" stroke-width="1.4886"/><path d="M236.2,215.2l2.3,-13.6" fill="none" stroke="#64c7ea" stroke-width="1.4886"/><path d="M257.8,217.2l-0.3,-17.9" fill="none" stroke="#64c7ea" stroke-width="1.4886"/><path d="M244.8,270.1l4.7,0.5l34.6,3.8" fill="none" stroke="#c3e8f3" stroke-width="2.2332"/><path d="M251.8,270.8v89.2" fill="none" stroke="#c3e8f3" stroke-width="2.2332"/><path d="M263.5,272.1v87.9" fill="none" stroke="#c3e8f3" stroke-width="2.2332"/><path d="M275.1,360v-87.2" fill="none" stroke="#c3e8f3" stroke-width="2.2332"/><path d="M202.9,256.8h5.1v13.3h-5.1z" fill="#ffffff" stroke="none" stroke-width="1"/><path d="M222.9,253.5h5.1v13.3h-5.1z" fill="#ffffff" stroke="none" stroke-width="1"/><path d="M202.9,322.4h5.1v13.3h-5.1z" fill="#ffffff" stroke="none" stroke-width="1"/><path d="M222.9,319h5.1v13.3h-5.1z" fill="#ffffff" stroke="none" stroke-width="1"/><path d="M211.6,287.1h5.1v13.3h-5.1z" fill="#ffffff" stroke="none" stroke-width="1"/><path d="M231.5,283.8h5.1v13.3h-5.1z" fill="#ffffff" stroke="none" stroke-width="1"/><path d="M211.6,351h5.1v8.4h-5.1z" fill="#ffffff" stroke="none" stroke-width="1"/><path d="M231.5,347.6h5.1v11.7h-5.1z" fill="#ffffff" stroke="none" stroke-width="1"/><path d="M163.03028,360.11598v-266.77248h143.31079v266.77248z" fill="none" stroke="none" stroke-width="0"/><path d="M137.5,376v-230h195v230z" fill="none" stroke="none" stroke-width="0"/></g></g></svg>