<svg version="1.1" xmlns="http://www.w3.org/2000/svg" xmlns:xlink="http://www.w3.org/1999/xlink" width="186.94868" height="268.81854" viewBox="0,0,186.94868,268.81854"><g transform="translate(-146.57566,-93.37911)"><g data-paper-data="{&quot;isPaintingLayer&quot;:true}" fill-rule="nonzero" stroke="none" stroke-linecap="butt" stroke-linejoin="miter" stroke-miterlimit="10" stroke-dasharray="" stroke-dashoffset="0" style="mix-blend-mode: normal"><path d="M209.6,192.1h60.8v167.8h-60.8z" fill="#e7f5f5" stroke-width="1"/><path d="M265.7,205.4h-52.1v-9.7h52.1zM215.9,203.1h47.5v-5.1h-47.5z" fill="#7aded4" stroke-width="1"/><path d="M210.7,207.9h58.3v2.3h-58.3z" fill="#7aded4" stroke-width="1"/><path d="M210.7,213.9h58.3v2.3h-58.3z" fill="#7aded4" stroke-width="1"/><path d="M214.2,215.3h2.3v144.7h-2.3z" fill="#7aded4" stroke-width="1"/><path d="M220,215.3h2.3v144.7h-2.3z" fill="#7aded4" stroke-width="1"/><path d="M225,215.3h2.3v144.7h-2.3z" fill="#7aded4" stroke-width="1"/><path d="M230.2,215.3h2.3v144.7h-2.3z" fill="#7aded4" stroke-width="1"/><path d="M235.9,215.3h2.3v144.7h-2.3z" fill="#7aded4" stroke-width="1"/><path d="M241.7,215.1h2.3v144.7h-2.3z" fill="#7aded4" stroke-width="1"/><path d="M249.4,215.1h2.3v144.7h-2.3z" fill="#7aded4" stroke-width="1"/><path d="M257.1,215.1h2.3v144.7h-2.3z" fill="#7aded4" stroke-width="1"/><path d="M263.3,215.1h2.3v144.7h-2.3z" fill="#7aded4" stroke-width="1"/><path d="M146.57566,359.66941v-266.2903h186.94868v266.2903z" fill="none" stroke-width="0"/><path d="M193.5,362.19765v-258h94v258z" fill="none" stroke-width="0"/><path d="M197.90387,361.60245v-213.18676h82.99637v213.18676z" fill="none" stroke-width="0"/></g></g></svg>