<svg version="1.1" xmlns="http://www.w3.org/2000/svg" xmlns:xlink="http://www.w3.org/1999/xlink" width="162.65031" height="293.16998" viewBox="0,0,162.65031,293.16998"><g transform="translate(-156.49336,-89.83002)"><g data-paper-data="{&quot;isPaintingLayer&quot;:true}" fill-rule="nonzero" stroke-linecap="butt" stroke-linejoin="miter" stroke-miterlimit="10" stroke-dasharray="" stroke-dashoffset="0" style="mix-blend-mode: normal"><path d="M264.1,163v197h-48.2v-153.9l48.2,-43.1" fill="#e7f5f5" stroke="none" stroke-width="1"/><path d="M260.1,175.5v28.9h-34.1l34.1,-28.9" fill="none" stroke="#ffbccb" stroke-width="3.9157"/><path d="M264.1,220.7v7.5l-35.5,-4.8l1.5,-7.3l34,4.6" fill="#7aded4" stroke="none" stroke-width="1"/><path d="M264.1,238.9v7.5l-35.5,-4.9l1.5,-7.3l34,4.7" fill="#7aded4" stroke="none" stroke-width="1"/><path d="M264.1,257v7.5l-35.5,-4.8l1.5,-7.3l34,4.6" fill="#7aded4" stroke="none" stroke-width="1"/><path d="M264.1,275.2v7.5l-35.5,-4.9l1.5,-7.3l34,4.7" fill="#7aded4" stroke="none" stroke-width="1"/><path d="M264.1,300.8l-35.5,-4.8l1.5,-7.3l34,4.6v7.5" fill="#7aded4" stroke="none" stroke-width="1"/><path d="M264.1,311.5v7.5l-35.5,-4.8l1.5,-7.4l34,4.7" fill="#7aded4" stroke="none" stroke-width="1"/><path d="M264.1,329.6v7.5l-35.5,-4.8l1.5,-7.3l34,4.6" fill="#7aded4" stroke="none" stroke-width="1"/><path d="M264.1,347.8v7.5l-35.5,-4.8l1.5,-7.3l34,4.6" fill="#7aded4" stroke="none" stroke-width="1"/><path d="M156.49336,361.15707v-234.55365h160.17089v234.55365z" fill="none" stroke="none" stroke-width="0"/><path d="M189.5,383v-264h114v264z" fill="none" stroke="none" stroke-width="0"/><path d="M162.10152,359.97507v-270.14505h157.04215v270.14505z" fill="none" stroke="none" stroke-width="0"/></g></g></svg>