<svg version="1.1" xmlns="http://www.w3.org/2000/svg" xmlns:xlink="http://www.w3.org/1999/xlink" width="158.18734" height="327.93895" viewBox="0,0,158.18734,327.93895"><g transform="translate(-156.49336,-32.72223)"><g data-paper-data="{&quot;isPaintingLayer&quot;:true}" fill-rule="nonzero" stroke-linecap="butt" stroke-linejoin="miter" stroke-miterlimit="10" stroke-dasharray="" stroke-dashoffset="0" style="mix-blend-mode: normal"><path d="M202.7,165.1l42.8,-14.5l34.2,16.1v192.6h-79.4l2.4,-194.2" fill="#7aded4" stroke="none" stroke-width="1"/><path d="M245,150.4l0.4,209.6h-45.1v-195.6c0,0 39.3,-11.8 44.7,-14z" fill="#e7f5f5" stroke="none" stroke-width="1"/><path d="M204.5,170.9l34.7,-9.6" fill="none" stroke="#7aded4" stroke-width="4.4846"/><path d="M204.5,180.3l34.7,-9.7" fill="none" stroke="#7aded4" stroke-width="4.4846"/><path d="M204.5,189.7l34.7,-9.7" fill="none" stroke="#7aded4" stroke-width="4.4846"/><path d="M204.5,199l34.7,-9.7" fill="none" stroke="#7aded4" stroke-width="4.4846"/><path d="M239.2,198.7l-34.7,9.7" fill="none" stroke="#7aded4" stroke-width="4.4846"/><path d="M239.2,208l-34.7,9.7" fill="none" stroke="#7aded4" stroke-width="4.4846"/><path d="M239.2,217.4l-34.7,9.7" fill="none" stroke="#7aded4" stroke-width="4.4846"/><path d="M239.2,226.7l-34.7,9.7" fill="none" stroke="#7aded4" stroke-width="4.4846"/><path d="M239.2,236.1l-34.7,9.7" fill="none" stroke="#7aded4" stroke-width="4.4846"/><path d="M239.2,245.5l-34.7,9.6" fill="none" stroke="#7aded4" stroke-width="4.4846"/><path d="M239.2,254.8l-34.7,9.7" fill="none" stroke="#7aded4" stroke-width="4.4846"/><path d="M239.2,264.2l-34.7,9.6" fill="none" stroke="#7aded4" stroke-width="4.4846"/><path d="M204.5,283.2l34.7,-9.7" fill="none" stroke="#7aded4" stroke-width="4.4846"/><path d="M204.5,292.6l34.7,-9.7" fill="none" stroke="#7aded4" stroke-width="4.4846"/><path d="M204.5,301.9l34.7,-9.7" fill="none" stroke="#7aded4" stroke-width="4.4846"/><path d="M204.5,311.3l34.7,-9.7" fill="none" stroke="#7aded4" stroke-width="4.4846"/><path d="M204.5,320.6l34.7,-9.7" fill="none" stroke="#7aded4" stroke-width="4.4846"/><path d="M204.5,330l34.7,-9.7" fill="none" stroke="#7aded4" stroke-width="4.4846"/><path d="M204.5,339.3l34.7,-9.7" fill="none" stroke="#7aded4" stroke-width="4.4846"/><path d="M204.5,348.7l34.7,-9.7" fill="none" stroke="#7aded4" stroke-width="4.4846"/><path d="M204.5,358l34.7,-9.6" fill="none" stroke="#7aded4" stroke-width="4.4846"/><path d="M170.72061,360.30502v-327.58279h130.41778v327.58279z" fill="none" stroke="none" stroke-width="0"/><path d="M244.76091,289.25373v-17.35598h6.44651v17.35598z" fill="none" stroke="none" stroke-width="0"/><path d="M186.74235,360.66118v-229.09891h97.68936v229.09891z" fill="none" stroke="none" stroke-width="0"/><path d="M236.33086,248.59115v-1.98354h13.88478v1.98354z" fill="none" stroke="none" stroke-width="0"/><path d="M156.49336,359.66941v-241.99193h158.18734v241.99193z" fill="none" stroke="none" stroke-width="0"/></g></g></svg>