<svg version="1.1" xmlns="http://www.w3.org/2000/svg" xmlns:xlink="http://www.w3.org/1999/xlink" width="118.511" height="55.458" viewBox="0,0,118.511,55.458"><defs><linearGradient x1="180.74567" y1="180.0002" x2="299.25537" y2="180.0002" gradientUnits="userSpaceOnUse" id="color-1"><stop offset="0" stop-color="#000000"/><stop offset="1" stop-color="#000000"/></linearGradient><linearGradient x1="185.19122" y1="180.0008" x2="294.80995" y2="180.0008" gradientUnits="userSpaceOnUse" id="color-2"><stop offset="0" stop-color="#006ad4"/><stop offset="1" stop-color="#002aa8"/></linearGradient></defs><g transform="translate(-180.7445,-152.271)"><g data-paper-data="{&quot;isPaintingLayer&quot;:true}" fill-rule="nonzero" stroke="none" stroke-width="1" stroke-linecap="butt" stroke-linejoin="miter" stroke-miterlimit="10" stroke-dasharray="" stroke-dashoffset="0" style="mix-blend-mode: normal"><path d="M299.2555,199.00029c0,4.82032 -5.01908,8.72871 -11.20633,8.72871h-96.09964c-6.18855,0 -11.20503,-3.90941 -11.20503,-8.72871v-38.00159c0,-4.82032 5.01648,-8.7277 11.20503,-8.7277h96.09834c6.19115,0 11.20633,3.90738 11.20633,8.7277v38.00159z" fill="url(#color-1)"/><path d="M294.80878,161.2695v37.462c0,2.862 -3.03046,5.19 -6.76026,5.19h-96.09834c-3.72589,0 -6.75896,-2.328 -6.75896,-5.19v-37.463c0,-2.862 3.03307,-5.19 6.75896,-5.19h96.09834c3.7298,0 6.76026,2.329 6.76026,5.191z" fill="url(#color-2)"/><text transform="translate(210.21001,189.54728) scale(0.8275,0.8275)" font-size="40" xml:space="preserve" fill="#000000" fill-rule="nonzero" stroke="none" stroke-width="1" stroke-linecap="butt" stroke-linejoin="miter" stroke-miterlimit="10" stroke-dasharray="" stroke-dashoffset="0" font-family="Handwriting" font-weight="normal" text-anchor="start" style="mix-blend-mode: normal"><tspan x="0" dy="0">Play</tspan></text></g></g></svg>