<svg version="1.1" xmlns="http://www.w3.org/2000/svg" xmlns:xlink="http://www.w3.org/1999/xlink" width="255.89067" height="112.68074" viewBox="0,0,255.89067,112.68074"><g transform="translate(-111.06851,-109.57866)"><g data-paper-data="{&quot;isPaintingLayer&quot;:true}" fill-rule="nonzero" stroke="none" stroke-width="0.5" stroke-linecap="butt" stroke-linejoin="miter" stroke-miterlimit="10" stroke-dasharray="" stroke-dashoffset="0" style="mix-blend-mode: normal"><g data-paper-data="{&quot;index&quot;:null}"><path d="M222.18203,206.59362c2.60421,0.39576 5.2179,0.7346 7.85939,1.05138c0.45684,-0.40841 0.90979,-0.81851 1.30654,-1.2601c1.11703,-1.24326 2.15291,-2.37525 3.20662,-3.41337c-0.33198,-0.53548 -0.49552,-1.2821 -0.05281,-2.25605c1.03451,-2.27592 3.31042,-1.24141 3.31042,-1.24141c0.18983,0.09691 0.38573,0.18644 0.58582,0.27091c0.49527,-0.34205 1.01202,-0.67202 1.55678,-0.99106c-4.4365,-1.11593 -9.01709,-1.93322 -13.25229,-3.23166c-3.9483,-1.21048 -7.89247,-3.11986 -11.89993,-4.29585c-0.0654,0.05285 -0.12499,0.11109 -0.17971,0.17381c1.87706,0.74454 4.29504,0.74198 5.599,2.27808c1.21331,1.42932 0.55165,3.71435 0.99763,5.53539c0.40615,1.65839 1.52756,3.17376 1.55337,4.88097c0.01305,0.86291 -0.26143,1.68485 -0.59084,2.49896zM212.58804,195.93912c-0.15102,0.41317 -0.2748,0.83399 -0.35235,1.26727c-0.67536,3.77288 0.79619,5.10286 -0.96511,7.18644c0.58019,0.14181 1.15389,0.38338 1.73487,0.51212c0.71064,0.15747 1.42038,0.30768 2.12959,0.45131c0.69093,-1.10627 2.14266,-1.10627 2.14266,-1.10627l0.91503,0.56664c-1.15247,-1.15557 -1.55054,-2.9273 -1.85682,-4.53034c-0.21674,-1.13435 0.72132,-2.56462 -0.00237,-3.46461c-0.71413,-0.88811 -2.23094,-0.46666 -3.3464,-0.69999c0,0 -0.16772,-0.05591 -0.39909,-0.18259zM241.93239,219.96207c-0.79941,-0.08694 -1.59943,-0.18359 -2.40019,-0.27951c-1.56032,-0.18691 -3.1766,-0.13464 -4.67502,-0.60819c-0.79985,-0.25278 -1.23279,-1.20569 -2.0159,-1.50636c-1.57864,-0.60612 -3.8808,0.15646 -4.93778,-1.16349c-0.85829,-1.07184 -1.0262,-2.63301 -0.81248,-4.08514c-5.09569,-0.64576 -10.11232,-1.41138 -15.16791,-2.53296c-1.84984,-0.41039 -7.37803,-1.5182 -7.95511,-2.57969c-2.15378,-3.9617 2.89219,-3.92101 3.45063,-6.28423c0.35492,-1.50195 -0.3899,-3.11325 -0.09892,-4.62888c0.16967,-0.88373 1.17239,-3.65313 2.30319,-5.91921c-0.92492,-0.07411 -1.9187,-0.15884 -2.82074,-0.27409c-0.45729,0.59024 -1.173,0.9702 -1.97745,0.9702c-0.88153,0 -1.6565,-0.45626 -2.10163,-1.14551l-2.12064,-3.18095c-2.63898,-0.97801 -6.73988,-0.53134 -9.3453,-0.94553c-7.07781,-1.12519 -13.96851,-2.39179 -21.13833,-2.66918c-4.64469,-0.35958 -8.97002,-1.34749 -13.5722,-1.89003c-4.1565,-0.48999 -8.51293,0.1126 -12.69243,-0.12728c-6.84483,-0.39286 -13.43213,-1.43744 -20.05743,-2.90872c-3.30988,-0.73502 -5.16831,0.5025 -8.79277,-1.30211c-2.60323,-1.29614 -2.74853,-4.0021 -3.11915,-6.34005c-0.83106,-5.24243 -2.07406,-7.26933 2.3754,-11.79791c1.11765,-1.13753 4.8326,-1.05967 6.77384,-1.0228l2.29265,-0.53003c4.41207,-2.19071 8.88682,-4.19798 13.3788,-6.21881c2.232,-1.11652 4.56848,-2.04207 6.70382,-3.33386c2.25689,-1.36532 3.88233,-3.60865 6.08813,-5.05506c3.13775,-2.05751 8.70556,-3.83578 12.23776,-4.79311c5.50075,-1.49086 12.39994,-0.55957 18.04247,-0.55957c9.65028,0 19.19914,-0.25365 28.80936,-0.74566c-0.25178,-0.24676 -0.46849,-0.5273 -0.64019,-0.85033c-0.86286,-1.6234 0.9194,-3.5851 1.71832,-5.2409c0.50174,-1.03989 1.46591,-1.78709 2.12878,-2.73245c0.43654,-0.62257 5.2637,-8.17627 5.59665,-8.57045c1.39437,-1.65081 5.79666,-4.7684 7.3788,-5.90685c1.56439,-1.12567 2.89681,-2.72668 4.72776,-3.32839c1.83095,-0.60171 3.85344,-0.09588 5.78051,-0.12496c3.33215,-0.05029 6.66738,0 10,0c0.79428,0 8.70527,-0.21217 9.61594,0.59245c1.22362,1.08113 1.14964,3.08424 1.37554,4.70135c0.61812,4.42467 0.00852,9.73125 0.00852,14.2062c0,2.88443 -0.0266,5.76882 -0.02416,8.65325c0.00009,0.10544 -0.00989,0.21456 -0.02464,0.32546c0.07556,0.03401 0.14977,0.07177 0.22245,0.11376c0.07871,0.04548 0.1564,0.09237 0.23315,0.14057l0.02169,-0.05423l1.90274,0.7611c1.22146,-0.015 2.44669,0.06009 3.66878,0.06009c3.83333,0 7.66667,0 11.5,0c5.96075,0 13.96635,0.96217 19.69743,-0.86767c1.08611,-0.34678 1.86698,-1.33383 2.90482,-1.80582c1.57322,-0.71546 3.27245,-1.1157 4.88522,-1.73691c4.75899,-1.83307 9.77008,-3.96131 13.04201,-8.12813c1.44826,-1.84437 2.06708,-4.2107 3.16169,-6.28458c0.64858,-1.22868 4.83727,-9.36922 5.59493,-9.82143c1.81375,-1.08254 4.21644,-0.29332 6.32847,-0.32368c4.54582,-0.06534 8.63745,1.15554 13.09163,1.47673c1.86944,0.1348 3.85615,-0.49779 5.62132,0.13241c1.60515,0.57307 3.03996,1.81997 3.92574,3.2761c0.62217,1.02278 0.21263,2.38631 0.24674,3.58297c0.04799,1.68381 0.03108,3.36929 -0.00057,5.05348c-0.06204,3.30118 -0.3015,5.55392 -0.51797,8.93112c-0.12026,1.87611 0.2446,3.84052 -0.33112,5.63016c-0.91804,2.85378 -3.17544,5.11297 -4.35248,7.87004c-0.90862,2.12833 -1.43565,4.46024 -2.71076,6.39143c-0.57932,0.8774 -1.43886,1.53485 -2.19847,2.26178c-0.2797,0.26767 -0.932,0.32998 -0.91393,0.71671c0.05345,1.14385 0.67988,1.90512 1.45008,2.53223c3.60185,0.48032 4.90313,-0.6249 8.7264,2.2991c1.30151,0.99539 1.56754,3.01071 2.89288,3.97414c1.23408,0.89709 3.0094,0.65346 4.38391,1.31559c0.53591,0.25816 1.04544,0.56282 1.54179,0.89069c0.31789,0.03824 0.63229,0.0915 0.94123,0.16756c1.51958,0.37409 3.77419,-0.03821 4.49655,1.35005c3.15738,6.06794 0.07992,9.72493 -5.21834,11.51906c-1.79647,0.60833 -3.79261,0.07969 -5.68921,0.09688c-6.42543,0.05823 -13.18744,0.26408 -19.52288,-1.05529c-3.92221,-0.81681 -7.7795,-2.3829 -11.56491,-3.91815c-1.26203,1.16342 -2.40576,2.5067 -3.92951,3.27221c-1.18427,0.59496 -2.63594,0.28436 -3.94756,0.47441c-3.28335,0.47574 -6.59094,0.77183 -9.87531,1.24047c-3.25412,0.46432 -6.48755,0.99201 -9.72158,1.51715c-1.43855,0.74699 -2.63085,1.34876 -2.84378,1.3975c-1.64424,0.37632 -3.36505,0.11838 -5.05865,0.07668c0.74849,0.19409 1.49747,0.39928 2.24677,0.62067c2.73305,0.80752 5.07108,2.60272 7.58318,3.94844c0.31166,0.16696 8.89019,4.75734 9.0463,4.86288c1.25517,0.84857 2.17874,2.13348 3.44593,2.96401c3.40939,2.23456 7.83247,3.69371 11.65226,5.06405c1.82326,1.00289 4.11112,1.43256 5.46977,3.00867c1.07923,1.25197 0.89233,3.18456 1.25846,4.79643c0.97249,4.28137 2.36472,13.09671 -4.32111,14.19479c-1.58317,0.26002 -3.14193,-0.683 -4.66255,-1.19463c-4.64545,-1.56302 -7.358,-3.06862 -12.24216,-3.80044c-8.62049,-1.29166 -17.38832,-2.87199 -26.07239,-4.84992c-0.52316,0.55972 -1.20504,0.76953 -1.20504,0.76953c-3.09303,0.94794 -5.35873,1.88514 -8.53175,2.10226c-3.62717,0.24819 -8.44205,-0.51606 -11.93309,0.88664c-2.61145,1.04928 -4.93017,2.87039 -7.6621,3.54653c-2.34256,0.57977 -4.68516,0.68126 -7.03128,0.56986c-0.25167,0.18046 -0.56974,0.33039 -0.97065,0.43062c-1.23636,0.30909 -2.00003,-0.16963 -2.45165,-0.71329zM239.28426,205.27049c-1.47581,1.38525 -2.77072,2.96332 -4.27232,4.51667c-0.94752,0.98018 -1.93579,1.92015 -2.90723,2.87663c-0.1486,0.14631 -0.66026,0.41038 -0.45282,0.4317c1.01684,0.10451 2.07379,-0.42403 3.06222,-0.16349c0.80048,0.211 1.19837,1.23304 1.9841,1.49364c1.25721,0.41698 2.57105,0.58135 3.90191,0.66038c-0.29713,-2.22573 -0.77775,-5.82676 -0.79398,-5.95535c-0.15823,-1.2536 0.34616,-2.77631 -0.44071,-3.76494c-0.02621,-0.03293 -0.05328,-0.06465 -0.08118,-0.09524zM224.7777,189.25l-0.86412,-0.00362c1.41801,0.54177 2.83467,1.0602 4.25452,1.4955c7.81683,2.39651 16.49778,3.29643 23.73951,7.0082c0.12336,-0.00006 0.24672,-0.00009 0.37009,-0.00009l-0.11803,-0.23607c0,0 2.23607,-1.11803 3.3541,1.11803c0.20383,0.40766 0.29618,0.77815 0.31092,1.11149c13.73729,4.86421 28.62437,8.4717 42.92449,11.0514c4.93244,0.8898 10.14765,1.07973 15.01023,2.28846c3.48802,0.86705 6.63294,3.46868 10.10095,4.20176c1.34458,0.28422 1.2495,-2.55965 1.23406,-3.93385c-0.01654,-1.47169 -0.70691,-2.85931 -0.97224,-4.30698c-0.16747,-0.91375 0.29614,-2.0767 -0.32447,-2.76795c-0.83956,-0.93513 -2.31634,-0.97564 -3.4745,-1.46347c-4.09918,-1.46663 -8.73696,-3.08771 -12.40347,-5.46381c-1.30753,-0.84735 -2.26566,-2.15986 -3.55407,-3.03599c-2.68186,-1.82368 -5.72453,-3.05001 -8.5833,-4.58155c-2.2584,-1.20989 -4.32283,-2.90646 -6.78722,-3.60713c-4.73049,-1.34496 -9.39958,-2.12912 -14.03911,-3.51786c-4.83626,0.35341 -9.73585,0.59614 -14.54733,0.8623c-1.75229,0.09694 -6.91232,0.55111 -8.97028,0.10554c-3.18471,-0.68951 -6.24289,-2.0078 -9.47895,-2.38946c-6.14223,-0.72441 -12.14327,-1.70878 -18.20966,-2.99126c-0.02215,-0.00468 -0.04431,-0.00935 -0.06647,-0.01399c-3.89465,0.286 -7.76856,0.67787 -11.66461,1.05872c-1.93917,0.18956 -4.3048,-1.05572 -5.84359,0.13947c-0.60083,0.46667 0.60873,1.43848 0.59947,2.20335l0.19028,1.67688c2.09852,0.73549 4.6088,0.06046 6.82304,0.54738c0.1778,0.0391 0.35541,0.07997 0.53286,0.1225c2.15343,-0.82321 4.6258,-1.22947 6.69683,-1.66437l3.76011,-0.01357c0,0 2.5,0 2.5,2.5c0,2.5 -2.5,2.5 -2.5,2.5zM272.65385,210.14587c-6.92994,-1.82906 -13.75298,-3.94119 -20.34807,-6.39342c-0.52462,-0.35601 -1.0622,-0.68996 -1.6113,-1.00413c-2.37017,-0.00509 -4.73815,-0.02204 -7.10904,-0.05462c1.76542,2.86692 1.7286,9.05026 2.09653,12.59687c5.24052,0.14442 7.90008,-2.04479 12.82534,-3.91892c3.96156,-1.50743 8.95591,-0.86675 13.06691,-1.11336c0.36102,-0.02166 0.72094,-0.06017 1.07961,-0.11243zM246.88426,176.87274c-1.25152,-0.10586 -2.49811,-0.1946 -3.73392,-0.26675c2.34925,0.77735 4.66053,1.61741 7.02763,2.30492c-0.27982,-0.1158 -0.56002,-0.23066 -0.84063,-0.34452l-1.94638,-1.23627c0,0 -0.24249,-0.16166 -0.50669,-0.45738zM265.69144,174.75876c1.60683,0.38539 3.09297,1.19846 4.70533,1.56001c5.08632,1.14053 10.79375,1.34925 16.06958,1.4168c0.42877,-0.06142 0.8572,-0.12388 1.28533,-0.18724c3.05395,-0.70779 6.05388,-1.50257 9.10993,-2.05057c1.04126,-0.68193 2.08428,-1.36715 3.20719,-1.8573c1.4743,-0.64353 3.10603,-0.89874 4.55082,-1.60607c1.30318,-0.638 2.42462,-1.59421 3.5482,-2.54254c-1.69571,-0.56589 -3.5922,-0.7638 -5.0105,-1.83808c-2.04895,-1.55197 -3.83,-8.96104 -3.14132,-10.46903c0.91526,-2.00413 3.63606,-2.56375 5.68731,-3.36788c0.95433,-0.37411 2.04939,-0.05719 3.07438,-0.06688c3.33253,-0.0315 6.66723,0 10,0c5.06051,0 9.74119,-0.26839 14.68628,1.09604c0.98083,0.27063 1.92254,0.66446 2.85504,1.0858c-0.01602,-0.32411 -0.02149,-0.66883 -0.01603,-1.03656c0.03687,-2.48278 2.75971,-3.35141 3.88761,-5.02152c1.79584,-2.65915 2.29984,-6.49199 3.8889,-9.31453c0.74499,-1.32328 2.11693,-2.3031 2.59486,-3.7445c0.4576,-1.38006 0.02399,-2.90853 0.09268,-4.36086c0.13815,-2.92083 0.45718,-5.83377 0.51123,-8.75736c0.03048,-1.64856 -0.06431,-3.29891 -0.00057,-4.94652c0.01853,-0.47909 0.4196,-0.96982 0.24674,-1.41703c-0.65916,-1.70535 -3.62708,-0.49685 -5.45294,-0.59149c-4.25266,-0.22043 -8.48136,-1.19694 -12.76801,-1.46048c-1.22819,-0.07551 -2.61719,-1.02036 -3.67134,-0.38559c-1.06237,0.63972 -0.87471,2.32397 -1.40741,3.44384c-0.71593,1.50506 -1.55607,2.94784 -2.33411,4.42176c-1.23181,2.33326 -2.01182,4.95325 -3.64242,7.02753c-3.8536,4.90216 -9.56351,7.55947 -15.18876,9.71803c-1.49853,0.57503 -3.08239,0.9295 -4.54468,1.59129c-1.20999,0.5476 -2.16622,1.62562 -3.4345,2.01983c-7.5676,2.35211 -17.49045,1.13233 -25.30257,1.13233c-3.89493,0 -8.01331,0.20746 -11.92347,0.02923l-2.93835,0.17284c-9.59316,0.56226 -18.27351,-0.37899 -27.68636,-2.26292c-3.69244,-0.92135 -7.85415,-1.49277 -11.52597,-2.70855c-0.4039,1.65477 -2.27905,1.76508 -2.27905,1.76508c-11.24728,0.6616 -22.37998,1.00431 -33.64681,1.00431c-5.20668,0 -11.90134,-0.98664 -16.95753,0.44043c-3.10939,0.8776 -8.04927,2.38679 -10.76224,4.20689c-2.13346,1.43131 -3.72018,3.60449 -5.91187,4.94494c-0.20814,0.1273 -6.06782,3.05224 -7.29618,3.66614c-4.63925,2.08824 -9.25963,4.17218 -13.83061,6.4068l-1.85799,0.4505c-0.6662,0.3843 -1.38359,0.3843 -1.38359,0.3843c-1.08455,-0.00406 -2.1691,-0.00896 -3.25366,-0.01217c-0.40962,-0.00121 -0.95857,-0.30886 -1.22886,-0.00107c-2.2202,2.52825 -0.9925,4.02024 -0.47644,7.01423c0.16649,0.96594 -0.21335,2.59135 0.73269,2.84782c0.77858,0.21108 6.12987,0.46167 7.20723,0.69789c6.41405,1.40632 12.75242,2.44303 19.38201,2.82353c4.24694,0.24375 8.64159,-0.34712 12.86813,0.14047c4.55088,0.52501 8.81341,1.52668 13.39834,1.87694c8.17755,0.31573 15.96166,2.46725 24.06867,3.12022c0.76105,0.0613 1.60343,0.0895 2.47633,0.12594c-0.13079,-0.38398 -0.19748,-0.78296 -0.17348,-1.20317c0.23836,-4.17471 4.0319,-5.96839 6.91747,-7.62055c9.93331,-5.68739 20.55449,-4.29995 31.58156,-4.31009c9.33633,0.00337 20.13473,-0.33983 28.01497,5.51131c0.22728,0.16876 0.42578,0.36811 0.607,0.58576c0.60209,0.13245 1.19956,0.26965 1.79177,0.41169zM327.48607,170.92284c2.89582,1.16692 5.83143,2.26543 8.81451,2.88245c4.30185,0.88979 9.1105,0.94684 13.47712,0.94471c3.10377,-0.00152 6.25499,0.64042 9.31079,0.09688c0.58695,-0.1044 2.04324,-0.67426 2.72917,-1.56578c-0.79724,-0.03132 -1.42671,-0.45097 -1.42671,-0.45097c-0.54915,-0.37014 -1.0784,-0.77485 -1.61322,-1.16989c-2.03628,-0.08916 -4.09167,-0.29012 -5.93644,-1.09224c-2.30776,-1.00343 -3.69681,-3.62021 -6.04708,-4.51958c-1.00009,-0.3827 -2.20905,-0.08411 -3.16046,-0.5755c-1.02326,-0.5285 -1.68223,-1.5734 -2.52335,-2.3601c-0.09723,-0.08152 -0.19334,-0.16119 -0.2883,-0.23922c-0.20812,-0.02785 -0.40733,-0.06191 -0.59572,-0.10434c-2.83273,-0.63799 -5.34009,-2.32782 -8.13496,-3.1153c-4.42864,-1.24781 -8.76976,-0.90396 -13.31372,-0.90396c-3.33253,0 -6.6678,0.03761 -10,0c-0.59444,-0.00671 -3.95632,-0.3456 -4.23831,0.56524c-0.31321,1.01166 0.8052,1.95905 1.20714,2.93885c0.70876,1.72777 3.05035,2.29302 4.84289,2.81679c1.24063,0.81006 2.59443,1.30148 4.00129,1.67926c0.24927,0.02191 0.4972,0.03898 0.74108,0.03915c1.71487,0.00118 3.42563,0.16805 5.12486,0.44236l0.02752,-0.35778l4.96329,0.38179c1.30154,0.08728 2.33024,1.17067 2.33024,2.49433c0,0.42386 -0.10548,0.82308 -0.29163,1.17284zM260.62914,178.76719c0.19549,0.42053 0.27656,0.94745 0.08753,1.58562c0.54419,-0.01511 1.08778,-0.04097 1.63088,-0.07504c-0.33902,-0.43756 -0.64553,-0.91313 -0.97752,-1.36108c-0.24623,-0.05064 -0.49321,-0.10047 -0.74089,-0.14951zM251.2777,129.25c0,-4.54621 -0.27754,-9.25604 0.00852,-13.7938c0.02835,-0.44973 0.74467,-1.04018 0.37554,-1.29865c-0.41108,-0.28785 -0.88437,0.54608 -1.38406,0.59245c-1.65954,0.15401 -3.33333,0 -5,0c-3.33225,0 -6.66847,0.06196 -10,0c-1.40687,-0.02616 -2.88271,-0.56427 -4.21949,-0.12496c-1.33678,0.43931 -2.20134,1.75371 -3.32279,2.6036c-0.9027,0.68411 -5.51393,3.89275 -6.57064,5.16116c-2.08325,2.50062 -3.43375,5.53412 -5.30312,8.19842c-0.60935,0.86847 -1.2218,1.74796 -1.97145,2.49868c-0.35085,0.35136 -1.70852,0.50541 -1.28168,0.7591c0.8897,0.52878 2.07223,0.12127 3.08892,0.31501c4.23799,0.80758 8.44077,2.10299 12.62844,3.14984c7.19582,1.4381 13.91517,2.30115 21.01255,2.30508c0.23229,-1.13395 1.08312,-1.57878 1.7149,-1.75328c-0.22225,-3.01713 0.22436,-6.31764 0.22436,-8.61264z" fill="#000000"/><path d="M212.96915,196.07505c1.11547,0.23333 2.66957,-0.18759 3.3837,0.70052c0.72369,0.9 -0.1849,2.3654 0.03184,3.49975c0.30629,1.60303 0.68752,3.42422 1.83999,4.57979l-0.91811,-0.56428c0,0 -1.47632,0.00899 -2.16725,1.11525c-0.70921,-0.14364 -1.44201,-0.29732 -2.15265,-0.4548c-0.58098,-0.12874 -1.16982,-0.37993 -1.75001,-0.52174c1.7613,-2.08358 0.29433,-3.49075 0.96969,-7.26363c0.07756,-0.43328 0.20997,-0.85914 0.36099,-1.2723c0.23137,0.12668 0.40182,0.18144 0.40182,0.18144z" data-paper-data="{&quot;noHover&quot;:false,&quot;origItem&quot;:[&quot;Path&quot;,{&quot;applyMatrix&quot;:true,&quot;segments&quot;:[[[212.58804,195.93912],[0.23137,0.12668],[-0.15102,0.41317]],[[212.23569,197.20639],[0.07756,-0.43328],[-0.67536,3.77288]],[[211.27058,204.39283],[1.7613,-2.08358],[0.58019,0.14181]],[[213.00544,204.90495],[-0.58098,-0.12874],[0.71064,0.15747]],[[215.13504,205.35627],[-0.70921,-0.14364],[0.69093,-1.10627]],[217.2777,204.25],[[218.19273,204.81664],[0,0],[-1.15247,-1.15557]],[[216.3359,200.28631],[0.30629,1.60303],[-0.21674,-1.13435]],[[216.33354,196.82169],[0.72369,0.9],[-0.71413,-0.88811]],[[212.98713,196.12171],[1.11547,0.23333],[0,0]]],&quot;closed&quot;:true}]}" fill="#ff5600"/><path d="M239.3935,205.32435c0.78687,0.98863 0.30252,2.53911 0.46076,3.79272c0.01623,0.1286 0.48252,3.78008 0.77965,6.00582c-1.33086,-0.07904 -2.67153,-0.23075 -3.92874,-0.64773c-0.78573,-0.2606 -1.21307,-1.28751 -2.01356,-1.4985c-0.98843,-0.26054 -2.0647,0.25077 -3.08153,0.14626c-0.20745,-0.02132 0.30357,-0.2864 0.45217,-0.43271c0.97144,-0.95649 1.9551,-1.93975 2.90263,-2.91993c1.5016,-1.55335 2.87078,-3.15649 4.34658,-4.54173c0.0279,0.03059 0.05583,0.06289 0.08204,0.09581z" data-paper-data="{&quot;noHover&quot;:false,&quot;origItem&quot;:[&quot;Path&quot;,{&quot;applyMatrix&quot;:true,&quot;segments&quot;:[[[239.28426,205.27049],[0.0279,0.03059],[-1.47581,1.38525]],[[235.01194,209.78716],[1.5016,-1.55335],[-0.94752,0.98018]],[[232.10471,212.66379],[0.97144,-0.95649],[-0.1486,0.14631]],[[231.6519,213.09549],[-0.20745,-0.02132],[1.01684,0.10451]],[[234.71411,212.932],[-0.98843,-0.26054],[0.80048,0.211]],[[236.69822,214.42564],[-0.78573,-0.2606],[1.25721,0.41698]],[[240.60012,215.08602],[-1.33086,-0.07904],[-0.29713,-2.22573]],[[239.80614,209.13067],[0.01623,0.1286],[-0.15823,-1.2536]],[[239.36544,205.36573],[0.78687,0.98863],[-0.02621,-0.03293]]],&quot;closed&quot;:true}]}" fill="#ff5600"/><path d="M251.09655,137.88779c-0.63178,0.1745 -1.48568,0.62397 -1.71797,1.75792c-7.09738,-0.00392 -13.87404,-0.84981 -21.06986,-2.28791c-4.18766,-1.04685 -8.41898,-2.36894 -12.65697,-3.17651c-1.01668,-0.19374 -2.2006,0.21032 -3.0903,-0.31846c-0.42684,-0.25369 0.93059,-0.40843 1.28144,-0.75979c0.74965,-0.75072 1.36068,-1.63519 1.97003,-2.50366c1.86937,-2.66429 3.22229,-5.72781 5.30554,-8.22842c1.0567,-1.26841 5.69342,-4.50367 6.59613,-5.18778c1.12145,-0.84989 2.00241,-2.16864 3.33919,-2.60795c1.33678,-0.43931 2.82957,0.1002 4.23644,0.12636c3.33153,0.06196 6.69199,0.01451 10.02424,0.01451c1.66667,0 3.34529,0.16013 5.00482,0.00613c0.4997,-0.04637 0.97331,-0.87981 1.38439,-0.59196c0.36912,0.25847 -0.34615,0.85061 -0.3745,1.30034c-0.28606,4.53776 -0.00186,9.27939 -0.00186,13.82559c0,2.295 -0.45302,5.61446 -0.23077,8.63159z" data-paper-data="{&quot;noHover&quot;:false,&quot;origItem&quot;:[&quot;Path&quot;,{&quot;applyMatrix&quot;:true,&quot;segments&quot;:[[[251.2777,129.25],[0,2.295],[0,-4.54621]],[[251.28622,115.4562],[-0.28606,4.53776],[0.02835,-0.44973]],[[251.66176,114.15755],[0.36912,0.25847],[-0.41108,-0.28785]],[[250.2777,114.75],[0.4997,-0.04637],[-1.65954,0.15401]],[[245.2777,114.75],[1.66667,0],[-3.33225,0]],[[235.2777,114.75],[3.33153,0.06196],[-1.40687,-0.02616]],[[231.05821,114.62504],[1.33678,-0.43931],[-1.33678,0.43931]],[[227.73542,117.22863],[1.12145,-0.84989],[-0.9027,0.68411]],[[221.16478,122.38979],[1.0567,-1.26841],[-2.08325,2.50062]],[[215.86166,130.58821],[1.86937,-2.66429],[-0.60935,0.86847]],[[213.89021,133.08689],[0.74965,-0.75072],[-0.35085,0.35136]],[[212.60853,133.84599],[-0.42684,-0.25369],[0.8897,0.52878]],[[215.69745,134.161],[-1.01668,-0.19374],[4.23799,0.80758]],[[228.32588,137.31084],[-4.18766,-1.04685],[7.19582,1.4381]],[[249.33843,139.61592],[-7.09738,-0.00392],[0.23229,-1.13395]],[[251.05334,137.86264],[-0.63178,0.1745],[-0.22225,-3.01713]]],&quot;closed&quot;:true}]}" fill="#ffffff"/><path d="M222.73807,204.13056c-0.02581,-1.7072 -1.16239,-3.26031 -1.56854,-4.91869c-0.44598,-1.82104 0.22688,-4.13581 -0.98643,-5.56514c-1.30395,-1.53611 -3.64095,-1.47517 -5.51801,-2.21972c0.05472,-0.06272 0.03031,-0.17521 0.09571,-0.22806c4.00746,1.17599 7.98601,3.06339 11.9343,4.27387c4.2352,1.29844 8.87313,2.16249 13.30963,3.27842c-0.54476,0.31904 -1.06145,0.65308 -1.55672,0.99514c-0.20009,-0.08446 -0.49597,-0.17557 -0.6858,-0.27248c0,0 -2.17669,-1.02559 -3.21119,1.25033c-0.4427,0.97395 -0.28344,1.7337 0.04854,2.26919c-1.05371,1.03812 -2.10934,2.1914 -3.22637,3.43466c-0.39676,0.44159 -0.85902,0.85592 -1.31587,1.26433c-2.6415,-0.31678 -5.30012,-0.66233 -7.90433,-1.05809c0.3294,-0.81412 0.59812,-1.64086 0.58508,-2.50377z" data-paper-data="{&quot;noHover&quot;:false,&quot;origItem&quot;:[&quot;Path&quot;,{&quot;applyMatrix&quot;:true,&quot;segments&quot;:[[[222.18203,206.59362],[0.3294,-0.81412],[2.60421,0.39576]],[[230.04143,207.645],[-2.6415,-0.31678],[0.45684,-0.40841]],[[231.34797,206.3849],[-0.39676,0.44159],[1.11703,-1.24326]],[[234.5546,202.97154],[-1.05371,1.03812],[-0.33198,-0.53548]],[[234.50178,200.71549],[-0.4427,0.97395],[1.03451,-2.27592]],[[237.81221,199.47408],[0,0],[0.18983,0.09691]],[[238.39803,199.74499],[-0.20009,-0.08446],[0.49527,-0.34205]],[[239.9548,198.75393],[-0.54476,0.31904],[-4.4365,-1.11593]],[[226.70251,195.52227],[4.2352,1.29844],[-3.9483,-1.21048]],[[214.80258,191.22641],[4.00746,1.17599],[-0.0654,0.05285]],[[214.62287,191.40022],[0.05472,-0.06272],[1.87706,0.74454]],[[220.22187,193.67831],[-1.30395,-1.53611],[1.21331,1.42932]],[[221.2195,199.21369],[-0.44598,-1.82104],[0.40615,1.65839]],[[222.77287,204.09466],[-0.02581,-1.7072],[0.01305,0.86291]]],&quot;closed&quot;:true}]}" fill="#ffffff"/><path d="M271.62402,210.26297c-4.111,0.24661 -9.14709,-0.34939 -13.10864,1.15804c-4.92526,1.87413 -7.63749,4.03657 -12.87801,3.89215c-0.36794,-3.54661 -0.33238,-9.77242 -2.09779,-12.63934c2.37088,0.03258 4.74648,0.03723 7.11665,0.04232c0.5491,0.31417 1.08781,0.64682 1.61243,1.00283c6.59509,2.45223 13.5051,4.60179 20.43504,6.43085c-0.35867,0.05226 -0.71866,0.0915 -1.07968,0.11315z" data-paper-data="{&quot;noHover&quot;:false,&quot;origItem&quot;:[&quot;Path&quot;,{&quot;applyMatrix&quot;:true,&quot;segments&quot;:[[[272.65385,210.14587],[-0.35867,0.05226],[-6.92994,-1.82906]],[[252.30579,203.75245],[6.59509,2.45223],[-0.52462,-0.35601]],[[250.69449,202.74832],[0.5491,0.31417],[-2.37017,-0.00509]],[[243.58545,202.6937],[2.37088,0.03258],[1.76542,2.86692]],[[245.68198,215.29057],[-0.36794,-3.54661],[5.24052,0.14442]],[[258.50733,211.37165],[-4.92526,1.87413],[3.96156,-1.50743]],[[271.57424,210.25829],[-4.111,0.24661],[0.36102,-0.02166]]],&quot;closed&quot;:true}]}" fill="#ffffff"/><path d="M227.22999,186.73505c0,-2.5 -2.40517,-2.46831 -2.40517,-2.46831l-3.75967,0.01228c-2.07103,0.43491 -4.54245,0.83784 -6.69588,1.66105c-0.17744,-0.04253 -0.35506,-0.08341 -0.53285,-0.12251c-2.21424,-0.48692 -4.82175,0.16477 -6.92027,-0.57072l-0.18997,-1.67815c0.00926,-0.76487 -1.19988,-1.73823 -0.59905,-2.2049c1.53879,-1.19519 3.90488,0.04859 5.84405,-0.14098c3.89604,-0.38086 7.77177,-0.77745 11.66642,-1.06345c0.02217,0.00464 0.04433,0.00929 0.06648,0.01398c6.06639,1.28248 12.07138,2.25961 18.21362,2.98402c3.23607,0.38166 6.29943,1.69336 9.48413,2.38287c2.05797,0.44556 7.23648,-0.02112 8.98877,-0.11806c4.81148,-0.26617 9.75684,-0.5039 14.5931,-0.85732c4.63954,1.38874 9.32648,2.1939 14.05697,3.53886c2.4644,0.70067 4.53199,2.40657 6.79038,3.61646c2.85877,1.53153 5.90263,2.76604 8.58449,4.58972c1.28842,0.87613 2.24664,2.19248 3.55417,3.03983c3.66652,2.3761 8.30399,4.00198 12.40317,5.4686c1.15817,0.48782 2.63484,0.52924 3.4744,1.46437c0.62061,0.69125 0.15665,1.85645 0.32413,2.7702c0.26533,1.44767 0.95502,2.83854 0.97156,4.31024c0.01544,1.3742 0.10961,4.22131 -1.23497,3.93709c-3.46801,-0.73308 -6.61265,-3.33561 -10.10067,-4.20266c-4.86258,-1.20873 -10.07871,-1.39585 -15.01115,-2.28565c-14.30012,-2.57971 -29.28394,-6.19914 -43.02122,-11.06335c-0.01474,-0.33334 -0.10735,-0.7095 -0.31118,-1.11716c-1.11803,-2.23607 -3.25431,-1.11292 -3.25431,-1.11292l0.1181,0.23523c-0.12337,0 -0.34646,-0.00732 -0.46981,-0.00726c-7.24173,-3.71177 -15.92171,-4.61853 -23.73854,-7.01504c-1.41984,-0.4353 -2.83636,-0.95438 -4.25437,-1.49616l0.86417,0.0034c0,0 2.50098,-0.00361 2.50098,-2.50361z" data-paper-data="{&quot;noHover&quot;:false,&quot;origItem&quot;:[&quot;Path&quot;,{&quot;applyMatrix&quot;:true,&quot;segments&quot;:[[224.7777,189.25],[[223.91358,189.24638],[0,0],[1.41801,0.54177]],[[228.1681,190.74189],[-1.41984,-0.4353],[7.81683,2.39651]],[[251.90761,197.75009],[-7.24173,-3.71177],[0.12336,-0.00006]],[[252.2777,197.75],[-0.12337,0],[0,0]],[252.15967,197.51393],[[255.51377,198.63197],[-1.11803,-2.23607],[0.20383,0.40766]],[[255.82469,199.74346],[-0.01474,-0.33334],[13.73729,4.86421]],[[298.74918,210.79486],[-14.30012,-2.57971],[4.93244,0.8898]],[[313.7594,213.08332],[-4.86258,-1.20873],[3.48802,0.86705]],[[323.86035,217.28508],[-3.46801,-0.73308],[1.34458,0.28422]],[[325.09441,213.35123],[0.01544,1.3742],[-0.01654,-1.47169]],[[324.12217,209.04425],[0.26533,1.44767],[-0.16747,-0.91375]],[[323.7977,206.2763],[0.62061,0.69125],[-0.83956,-0.93513]],[[320.32319,204.81283],[1.15817,0.48782],[-4.09918,-1.46663]],[[307.91972,199.34902],[3.66652,2.3761],[-1.30753,-0.84735]],[[304.36565,196.31303],[1.28842,0.87613],[-2.68186,-1.82368]],[[295.78235,191.73149],[2.85877,1.53153],[-2.2584,-1.20989]],[[288.99512,188.12436],[2.4644,0.70067],[-4.73049,-1.34496]],[[274.95601,184.6065],[4.63954,1.38874],[-4.83626,0.35341]],[[260.40868,185.4688],[4.81148,-0.26617],[-1.75229,0.09694]],[[251.43839,185.57434],[2.05797,0.44556],[-3.18471,-0.68951]],[[241.95944,183.18489],[3.23607,0.38166],[-6.14223,-0.72441]],[[223.74978,180.19363],[6.06639,1.28248],[-0.02215,-0.00468]],[[223.68331,180.17963],[0.02217,0.00464],[-3.89465,0.286]],[[212.0187,181.23836],[3.89604,-0.38086],[-1.93917,0.18956]],[[206.17511,181.37783],[1.53879,-1.19519],[-0.60083,0.46667]],[[206.77459,183.58118],[0.00926,-0.76487],[0,0]],[[206.96487,185.25806],[0,0],[2.09852,0.73549]],[[213.78791,185.80544],[-2.21424,-0.48692],[0.1778,0.0391]],[[214.32076,185.92794],[-0.17744,-0.04253],[2.15343,-0.82321]],[[221.01759,184.26357],[-2.07103,0.43491],[0,0]],[224.7777,184.25],[[227.2777,186.75],[0,-2.5],[0,2.5]]],&quot;closed&quot;:true}]}" fill="#ffffff"/><path d="M327.73362,169.77359c0,-1.32366 -1.03455,-2.42817 -2.33609,-2.51545l-4.96335,-0.38427l-0.0275,0.35919c-1.69923,-0.27431 -3.41001,-0.44282 -5.12488,-0.444c-0.24388,-0.00017 -0.4918,-0.01734 -0.74108,-0.03925c-1.40686,-0.37778 -2.7605,-0.87286 -4.00114,-1.68291c-1.79254,-0.52376 -4.13359,-1.09334 -4.84235,-2.82112c-0.40193,-0.9798 -1.51938,-1.93165 -1.20617,-2.94331c0.28199,-0.91084 3.64477,-0.57499 4.23921,-0.56828c3.3322,0.03761 6.67137,-0.00879 10.00391,-0.00879c4.54396,0 8.92135,-0.36872 13.34998,0.87909c2.79487,0.78748 5.35274,2.50168 8.18547,3.13967c0.18839,0.04243 0.38868,0.07846 0.59681,0.10631c0.09496,0.07803 0.19194,0.15946 0.28917,0.24098c0.84112,0.7867 1.50444,1.84634 2.5277,2.37484c0.95141,0.49139 2.16072,0.19641 3.16081,0.57911c2.35027,0.89937 3.73855,3.52839 6.04632,4.53182c1.84477,0.80212 3.90017,1.00304 5.93645,1.0922c0.53482,0.39504 1.06376,0.80125 1.61292,1.17139c0,0 0.62942,0.41987 1.42666,0.4512c-0.68593,0.89152 -2.14322,1.46516 -2.73017,1.56957c-3.0558,0.54355 -6.20963,-0.09168 -9.3134,-0.09016c-4.36661,0.00214 -9.19976,-0.0308 -13.50162,-0.92059c-2.98308,-0.61702 -5.98006,-1.73198 -8.87587,-2.8989c0.18614,-0.34977 0.28822,-0.75447 0.28822,-1.17832z" data-paper-data="{&quot;noHover&quot;:false,&quot;origItem&quot;:[&quot;Path&quot;,{&quot;applyMatrix&quot;:true,&quot;segments&quot;:[[[327.48607,170.92284],[0.18614,-0.34977],[2.89582,1.16692]],[[336.30059,173.80529],[-2.98308,-0.61702],[4.30185,0.88979]],[[349.7777,174.75],[-4.36661,0.00214],[3.10377,-0.00152]],[[359.08849,174.84688],[-3.0558,0.54355],[0.58695,-0.1044]],[[361.81766,173.2811],[-0.68593,0.89152],[-0.79724,-0.03132]],[[360.39095,172.83013],[0,0],[-0.54915,-0.37014]],[[358.77773,171.66024],[0.53482,0.39504],[-2.03628,-0.08916]],[[352.84129,170.568],[1.84477,0.80212],[-2.30776,-1.00343]],[[346.7942,166.04842],[2.35027,0.89937],[-1.00009,-0.3827]],[[343.63375,165.47292],[0.95141,0.49139],[-1.02326,-0.5285]],[[341.1104,163.11282],[0.84112,0.7867],[-0.09723,-0.08152]],[[340.8221,162.8736],[0.09496,0.07803],[-0.20812,-0.02785]],[[340.22638,162.76925],[0.18839,0.04243],[-2.83273,-0.63799]],[[332.09142,159.65396],[2.79487,0.78748],[-4.42864,-1.24781]],[[318.7777,158.75],[4.54396,0],[-3.33253,0]],[[308.7777,158.75],[3.3322,0.03761],[-0.59444,-0.00671]],[[304.53939,159.31524],[0.28199,-0.91084],[-0.31321,1.01166]],[[305.74653,162.2541],[-0.40193,-0.9798],[0.70876,1.72777]],[[310.58942,165.07089],[-1.79254,-0.52376],[1.24063,0.81006]],[[314.59071,166.75015],[-1.40686,-0.37778],[0.24927,0.02191]],[[315.33179,166.7893],[-0.24388,-0.00017],[1.71487,0.00118]],[[320.45665,167.23166],[-1.69923,-0.27431],[0,0]],[320.48417,166.87388],[[325.44746,167.25567],[0,0],[1.30154,0.08728]],[[327.7777,169.75],[0,-1.32366],[0,0.42386]]],&quot;closed&quot;:true}]}" fill="#ffffff"/><path d="M263.93834,174.37877c-0.18122,-0.21765 -0.37967,-0.41706 -0.60695,-0.58582c-7.88024,-5.85114 -18.70886,-5.4903 -28.04519,-5.49367c-11.02707,0.01014 -21.69441,-1.39369 -31.62773,4.2937c-2.88558,1.65216 -6.60462,3.37913 -6.84298,7.55385c-0.02399,0.42021 -0.03025,0.88758 0.10054,1.27156c-0.87291,-0.03644 -1.71651,-0.06597 -2.47756,-0.12727c-8.10701,-0.65297 -15.89867,-2.81572 -24.07622,-3.13145c-4.58494,-0.35026 -8.84935,-1.35628 -13.40023,-1.8813c-4.22654,-0.4876 -8.62203,0.10088 -12.86897,-0.14287c-6.62959,-0.3805 -12.96901,-1.42098 -19.38305,-2.8273c-1.07736,-0.23622 -6.42887,-0.48779 -7.20745,-0.69886c-0.94604,-0.25648 -0.56644,-1.88311 -0.73294,-2.84905c-0.51606,-2.99398 -1.74422,-4.48888 0.47598,-7.01714c0.27029,-0.30779 0.91842,-0.01295 1.32804,-0.01174c1.08455,0.0032 2.16908,0.00792 3.25363,0.01197c0,0 0.61827,0.01317 1.28446,-0.37113l1.85798,-0.45059c4.57099,-2.23462 9.19111,-4.321 13.83036,-6.40924c1.22835,-0.6139 7.08792,-3.54063 7.29606,-3.66793c2.19168,-1.34045 3.77836,-3.51656 5.91182,-4.94787c2.71296,-1.82009 7.65299,-3.33243 10.76238,-4.21004c5.05618,-1.42707 11.751,-0.4421 16.95768,-0.4421c11.26682,0 22.40232,-0.35451 33.6496,-1.01612c0,0 1.8779,-0.11644 2.2818,-1.77122c3.67181,1.21578 7.84691,1.77126 11.53935,2.69261c9.41285,1.88392 18.17339,2.85694 27.76654,2.29468l2.93843,-0.17232c3.91016,0.17823 8.0288,-0.02706 11.92373,-0.02706c7.81212,0 17.63537,1.22861 25.20297,-1.1235c1.26829,-0.3942 2.22463,-1.47093 3.43462,-2.01853c1.46229,-0.66179 3.04623,-1.01549 4.54477,-1.59052c5.62525,-2.15856 11.33588,-4.81148 15.18948,-9.71364c1.6306,-2.07428 2.41138,-4.69108 3.6432,-7.02435c0.77804,-1.47392 1.61872,-2.9149 2.33465,-4.41997c0.5327,-1.11987 0.3455,-2.80276 1.40786,-3.44248c1.05415,-0.63477 2.53769,0.27752 3.76588,0.35303c4.28666,0.26354 8.51606,1.24232 12.76872,1.46275c1.82586,0.09464 4.79401,-1.11303 5.45317,0.59232c0.17286,0.44721 -0.22807,0.93847 -0.2466,1.41756c-0.06374,1.64761 0.03151,3.29994 0.00103,4.9485c-0.05405,2.92359 -0.37246,5.84013 -0.51061,8.76096c-0.06869,1.45232 0.36513,2.98265 -0.09246,4.36271c-0.47793,1.4414 -1.84975,2.42276 -2.59474,3.74604c-1.58906,2.82255 -2.09296,6.65955 -3.8888,9.3187c-1.1279,1.67011 -3.85083,2.54117 -3.88771,5.02394c-0.00546,0.36772 -0.00002,0.71293 0.01599,1.03705c-0.93249,-0.42135 -1.97395,-0.82229 -2.95478,-1.09291c-4.94509,-1.36443 -9.526,-1.08941 -14.5865,-1.08942c-3.33277,0 -6.66749,-0.03108 -10.00003,0.00042c-1.02499,0.00969 -2.12007,-0.30704 -3.0744,0.06708c-2.05125,0.80413 -4.77234,1.3665 -5.6876,3.37062c-0.68868,1.50799 1.09103,8.92367 3.13998,10.47564c1.41829,1.07428 3.31472,1.27246 5.01042,1.83835c-1.12358,0.94833 -2.24567,1.90666 -3.54885,2.54467c-1.44478,0.70733 -3.07718,0.96444 -4.55149,1.60798c-1.12291,0.49015 -2.16668,1.17725 -3.20794,1.85918c-3.05605,0.548 -6.05782,1.34666 -9.11177,2.05445c-0.42813,0.06335 -0.85685,0.12636 -1.28562,0.18778c-5.27583,-0.06755 -10.98686,-0.27059 -16.07318,-1.41112c-1.61236,-0.36155 -3.09957,-1.17322 -4.7064,-1.5586c-0.59221,-0.14204 -1.19028,-0.27851 -1.79237,-0.41095z" data-paper-data="{&quot;noHover&quot;:false,&quot;origItem&quot;:[&quot;Path&quot;,{&quot;applyMatrix&quot;:true,&quot;segments&quot;:[[[265.69144,174.75876],[-0.59221,-0.14204],[1.60683,0.38539]],[[270.39678,176.31877],[-1.61236,-0.36155],[5.08632,1.14053]],[[286.46636,177.73558],[-5.27583,-0.06755],[0.42877,-0.06142]],[[287.75169,177.54834],[-0.42813,0.06335],[3.05395,-0.70779]],[[296.86162,175.49777],[-3.05605,0.548],[1.04126,-0.68193]],[[300.06881,173.64047],[-1.12291,0.49015],[1.4743,-0.64353]],[[304.61962,172.03441],[-1.44478,0.70733],[1.30318,-0.638]],[[308.16783,169.49187],[-1.12358,0.94833],[-1.69571,-0.56589]],[[303.15733,167.65379],[1.41829,1.07428],[-2.04895,-1.55197]],[[300.01601,157.18476],[-0.68868,1.50799],[0.91526,-2.00413]],[[305.70332,153.81688],[-2.05125,0.80413],[0.95433,-0.37411]],[[308.7777,153.75],[-1.02499,0.00969],[3.33253,-0.0315]],[[318.7777,153.75],[-3.33277,0],[5.06051,0]],[[333.46398,154.84604],[-4.94509,-1.36443],[0.98083,0.27063]],[[336.31902,155.93184],[-0.93249,-0.42135],[-0.01602,-0.32411]],[[336.30299,154.89529],[-0.00546,0.36772],[0.03687,-2.48278]],[[340.1906,149.87377],[-1.1279,1.67011],[1.79584,-2.65915]],[[344.0795,140.55924],[-1.58906,2.82255],[0.74499,-1.32328]],[[346.67436,136.81474],[-0.47793,1.4414],[0.4576,-1.38006]],[[346.76704,132.45388],[-0.06869,1.45232],[0.13815,-2.92083]],[[347.27827,123.69652],[-0.05405,2.92359],[0.03048,-1.64856]],[[347.2777,118.75],[-0.06374,1.64761],[0.01853,-0.47909]],[[347.52444,117.33297],[0.17286,0.44721],[-0.65916,-1.70535]],[[342.0715,116.74148],[1.82586,0.09464],[-4.25266,-0.22043]],[[329.30349,115.281],[4.28666,0.26354],[-1.22819,-0.07551]],[[325.63215,114.89541],[1.05415,-0.63477],[-1.06237,0.63972]],[[324.22474,118.33925],[0.5327,-1.11987],[-0.71593,1.50506]],[[321.89063,122.761],[0.77804,-1.47392],[-1.23181,2.33326]],[[318.24821,129.78853],[1.6306,-2.07428],[-3.8536,4.90216]],[[303.05946,139.50656],[5.62525,-2.15856],[-1.49853,0.57503]],[[298.51477,141.09785],[1.46229,-0.66179],[-1.20999,0.5476]],[[295.08027,143.11767],[1.26829,-0.3942],[-7.5676,2.35211]],[[269.7777,144.25],[7.81212,0],[-3.89493,0]],[[257.85423,144.27923],[3.91016,0.17823],[0,0]],[[254.91588,144.45208],[0,0],[-9.59316,0.56226]],[[227.22952,142.18916],[9.41285,1.88392],[-3.69244,-0.92135]],[[215.70355,139.48061],[3.67181,1.21578],[-0.4039,1.65477]],[[213.42451,141.24569],[0,0],[-11.24728,0.6616]],[[179.7777,142.25],[11.26682,0],[-5.20668,0]],[[162.82017,142.69043],[5.05618,-1.42707],[-3.10939,0.8776]],[[152.05794,146.89732],[2.71296,-1.82009],[-2.13346,1.43131]],[[146.14607,151.84226],[2.19168,-1.34045],[-0.20814,0.1273]],[[138.8499,155.50841],[1.22835,-0.6139],[-4.63925,2.08824]],[[125.01928,161.9152],[4.57099,-2.23462],[0,0]],[[123.16129,162.3657],[0,0],[-0.6662,0.3843]],[[121.7777,162.75],[0,0],[-1.08455,-0.00406]],[[118.52404,162.73783],[1.08455,0.0032],[-0.40962,-0.00121]],[[117.29518,162.73677],[0.27029,-0.30779],[-2.2202,2.52825]],[[116.81874,169.75099],[-0.51606,-2.99398],[0.16649,0.96594]],[[117.55143,172.59881],[-0.94604,-0.25648],[0.77858,0.21108]],[[124.75867,173.2967],[-1.07736,-0.23622],[6.41405,1.40632]],[[144.14067,176.12023],[-6.62959,-0.3805],[4.24694,0.24375]],[[157.0088,176.2607],[-4.22654,-0.4876],[4.55088,0.52501]],[[170.40715,178.13764],[-4.58494,-0.35026],[8.17755,0.31573]],[[194.47581,181.25786],[-8.10701,-0.65297],[0.76105,0.0613]],[[196.95215,181.3838],[-0.87291,-0.03644],[-0.13079,-0.38398]],[[196.77866,180.18064],[-0.02399,0.42021],[0.23836,-4.17471]],[[203.69614,172.56009],[-2.88558,1.65216],[9.93331,-5.68739]],[[235.2777,168.25],[-11.02707,0.01014],[9.33633,0.00337]],[[263.29267,173.76131],[-7.88024,-5.85114],[0.22728,0.16876]],[[263.89967,174.34707],[-0.18122,-0.21765],[0.60209,0.13245]]],&quot;closed&quot;:true}]}" fill="#ffffff"/><g fill="#1171b3"><path d="M268.2777,163.25c-2.76142,0 -5,-2.23858 -5,-5c0,-2.76142 2.23858,-5 5,-5c2.76142,0 5,2.23858 5,5c0,2.76142 -2.23858,5 -5,5z"/><path d="M248.2777,163.75c-2.76142,0 -5,-2.23858 -5,-5c0,-2.76142 2.23858,-5 5,-5c2.76142,0 5,2.23858 5,5c0,2.76142 -2.23858,5 -5,5z"/><path d="M227.7777,162.75c-2.76142,0 -5,-2.23858 -5,-5c0,-2.76142 2.23858,-5 5,-5c2.76142,0 5,2.23858 5,5c0,2.76142 -2.23858,5 -5,5z"/><path d="M205.7777,162.25c-2.76142,0 -5,-2.23858 -5,-5c0,-2.76142 2.23858,-5 5,-5c2.76142,0 5,2.23858 5,5c0,2.76142 -2.23858,5 -5,5z"/><path d="M187.2777,160.25c-2.76142,0 -5,-2.23858 -5,-5c0,-2.76142 2.23858,-5 5,-5c2.76142,0 5,2.23858 5,5c0,2.76142 -2.23858,5 -5,5z"/><path d="M158.01377,142.27786l0.34507,0.22872c5.3112,1.80308 14.09994,2.18621 8.95347,12.19671c-1.16047,2.25724 -4.70709,1.96336 -7.18016,2.53413c-3.93853,0.90898 -9.52046,-0.40306 -13.24887,-1.06807c0,0 -4.91935,-0.89443 -4.02492,-5.81378c0.89443,-4.91935 5.81378,-4.02492 5.81378,-4.02492c0.66919,0.12439 1.34056,0.24803 2.01376,0.36241c0.03551,-0.65527 0.22094,-1.38165 0.61968,-2.17913c2.23607,-4.47214 6.7082,-2.23607 6.7082,-2.23607z"/></g></g></g></g></svg>