<svg version="1.1" xmlns="http://www.w3.org/2000/svg" xmlns:xlink="http://www.w3.org/1999/xlink" width="160.81135" height="103.8218" viewBox="0,0,160.81135,103.8218"><g transform="translate(-180.33271,-128.25564)"><g data-paper-data="{&quot;isPaintingLayer&quot;:true}" fill-rule="nonzero" stroke-linejoin="miter" stroke-miterlimit="10" stroke-dasharray="" stroke-dashoffset="0" style="mix-blend-mode: normal"><path d="M180.33271,232.07744v-103.8218h119.68346v103.8218z" fill="none" stroke="none" stroke-width="NaN" stroke-linecap="butt"/><g><path d="M225.91149,180.00002c0,-7.78087 6.30764,-14.08851 14.08851,-14.08851c7.78087,0 14.08851,6.30764 14.08851,14.08851c0,7.78087 -6.30764,14.08851 -14.08851,14.08851c-7.78087,0 -14.08851,-6.30764 -14.08851,-14.08851z" fill="#90ac39" stroke="none" stroke-width="1" stroke-linecap="butt"/><path d="M227.5668,180.00002c0,-6.86667 5.56653,-12.4332 12.4332,-12.4332c6.86667,0 12.4332,5.56653 12.4332,12.4332c0,6.86667 -5.56653,12.4332 -12.4332,12.4332c-6.86667,0 -12.4332,-5.56653 -12.4332,-12.4332z" fill="#bfff00" stroke="none" stroke-width="1" stroke-linecap="butt"/><path d="M240,174.55755v10.88494" fill="none" stroke="#7b9400" stroke-width="5.5" stroke-linecap="round"/></g><g><path d="M254.93001,180.00002c0,-7.78087 6.30764,-14.08851 14.08851,-14.08851c7.78087,0 14.08851,6.30764 14.08851,14.08851c0,7.78087 -6.30764,14.08851 -14.08851,14.08851c-7.78087,0 -14.08851,-6.30764 -14.08851,-14.08851z" fill="#90ac39" stroke="none" stroke-width="1" stroke-linecap="butt"/><path d="M256.58532,180.00002c0,-6.86667 5.56653,-12.4332 12.4332,-12.4332c6.86667,0 12.4332,5.56653 12.4332,12.4332c0,6.86667 -5.56653,12.4332 -12.4332,12.4332c-6.86667,0 -12.4332,-5.56653 -12.4332,-12.4332z" fill="#bfff00" stroke="none" stroke-width="1" stroke-linecap="butt"/><path d="M269.01852,174.55755v10.88494" fill="none" stroke="#7b9400" stroke-width="5.5" stroke-linecap="round"/></g><g><path d="M283.94853,180.00002c0,-7.78087 6.30764,-14.08851 14.08851,-14.08851c7.78087,0 14.08851,6.30764 14.08851,14.08851c0,7.78087 -6.30764,14.08851 -14.08851,14.08851c-7.78087,0 -14.08851,-6.30764 -14.08851,-14.08851z" fill="#90ac39" stroke="none" stroke-width="1" stroke-linecap="butt"/><path d="M285.60384,180.00002c0,-6.86667 5.56653,-12.4332 12.4332,-12.4332c6.86667,0 12.4332,5.56653 12.4332,12.4332c0,6.86667 -5.56653,12.4332 -12.4332,12.4332c-6.86667,0 -12.4332,-5.56653 -12.4332,-12.4332z" fill="#bfff00" stroke="none" stroke-width="1" stroke-linecap="butt"/><path d="M298.03704,174.55755v10.88494" fill="none" stroke="#7b9400" stroke-width="5.5" stroke-linecap="round"/></g><g><path d="M312.96704,180.00002c0,-7.78087 6.30764,-14.08851 14.08851,-14.08851c7.78087,0 14.08851,6.30764 14.08851,14.08851c0,7.78087 -6.30764,14.08851 -14.08851,14.08851c-7.78087,0 -14.08851,-6.30764 -14.08851,-14.08851z" fill="#90ac39" stroke="none" stroke-width="1" stroke-linecap="butt"/><path d="M314.62235,180.00002c0,-6.86667 5.56653,-12.4332 12.4332,-12.4332c6.86667,0 12.4332,5.56653 12.4332,12.4332c0,6.86667 -5.56653,12.4332 -12.4332,12.4332c-6.86667,0 -12.4332,-5.56653 -12.4332,-12.4332z" fill="#bfff00" stroke="none" stroke-width="1" stroke-linecap="butt"/><path d="M327.05555,174.55755v10.88494" fill="none" stroke="#7b9400" stroke-width="5.5" stroke-linecap="round"/></g></g></g></svg>