<svg version="1.1" xmlns="http://www.w3.org/2000/svg" xmlns:xlink="http://www.w3.org/1999/xlink" width="57.47258" height="37.80046" viewBox="0,0,57.47258,37.80046"><g transform="translate(-211.26371,-161.09977)"><g data-paper-data="{&quot;isPaintingLayer&quot;:true}" fill-rule="evenodd" stroke-miterlimit="10" stroke-dasharray="" stroke-dashoffset="0" style="mix-blend-mode: normal"><g><path d="M224.9083,188.18348c0.22628,0.36204 0.76931,1.08611 -0.99564,2.08176c-1.7649,0.99559 -4.93272,-0.22628 -5.29476,-0.40733c-1.67443,-0.72408 -3.25834,-1.71967 -4.57074,-2.98678c-4.43498,-4.38975 -1.6292,-10.18236 0.4978,-10.22759c2.17223,-0.04529 1.17664,3.84666 2.48898,7.19548c0.54308,1.3124 1.44815,2.39851 2.62479,3.21311c1.40292,1.04088 5.0233,0.72408 5.24958,1.13135z" fill="#f9a41f" stroke="none" stroke-width="1" stroke-linecap="butt" stroke-linejoin="miter"/><path d="M216.08363,179.17781c0.22623,1.40287 0.67879,3.98242 0.67879,3.98242c-0.85983,-0.36204 -1.7649,-0.45256 -2.67003,-0.27152c-1.26711,0.31675 -1.49339,1.94595 -1.94595,1.17658c-0.40727,-1.26711 -0.54308,-2.62474 -0.3168,-3.93713c0.3168,-1.76496 1.90071,-3.62038 2.89631,-3.43939c1.04088,0.22628 1.17664,1.04088 1.35768,2.48903z" fill="#ffffff" stroke="none" stroke-width="1" stroke-linecap="butt" stroke-linejoin="miter"/><path d="M224.9083,188.18348c0.22628,0.36204 0.76931,1.08611 -0.99564,2.08176c-1.7649,0.99559 -4.93272,-0.22628 -5.29476,-0.40733c-1.67443,-0.72408 -3.25834,-1.71967 -4.57074,-2.98678c-4.43498,-4.38975 -1.6292,-10.18236 0.4978,-10.22759c2.17223,-0.04529 1.17664,3.84666 2.48898,7.19548c0.54308,1.3124 1.44815,2.39851 2.62479,3.21311c1.40292,1.04088 5.0233,0.72408 5.24958,1.13135z" fill="none" stroke="#231f20" stroke-width="0.85737" stroke-linecap="round" stroke-linejoin="round"/></g><g><path d="M253.64508,192.79951c3.12259,0.99559 8.96043,0.40727 11.08743,-0.13576c3.3941,-0.85989 4.11818,4.7065 -0.58832,5.6568c-4.75178,0.95036 -12.39982,-2.89631 -12.39982,-2.89631c-1.94595,-0.90507 -1.26711,-3.62038 1.90071,-2.62474z" fill="#f9a41f" stroke="none" stroke-width="1" stroke-linecap="butt" stroke-linejoin="miter"/><path d="M253.64508,192.79951c3.12259,0.99559 8.96043,0.40727 11.08743,-0.13576c3.3941,-0.85989 4.11818,4.7065 -0.58832,5.6568c-4.75178,0.95036 -12.39982,-2.89631 -12.39982,-2.89631c-1.94595,-0.90507 -1.26711,-3.62038 1.90071,-2.62474z" fill="none" stroke="#231f20" stroke-width="0.85737" stroke-linecap="round" stroke-linejoin="round"/></g><g><path d="M229.6148,187.48447c-0.67884,-0.90507 -1.44815,-1.67438 -2.35327,-2.30799c-0.40727,-1.62915 -0.45256,-3.30358 -0.09052,-4.93278c1.40292,1.49344 2.62479,3.12259 3.66567,4.93278c0.90507,1.35768 0.09052,3.93719 -1.22187,2.30799z" fill="#231f20" stroke="#231f20" stroke-width="0.85737" stroke-linecap="round" stroke-linejoin="round" opacity="0.1"/><path d="M229.6148,187.41417c-3.80143,-4.84225 -6.65245,-2.80578 -8.82468,-5.0233c-1.76496,-1.7649 -0.67884,-5.6568 3.84661,-3.98242c3.12259,1.17664 6.15465,6.69773 6.15465,6.69773c0.95036,1.44815 0.13581,3.98242 -1.17658,2.30799z" fill="#f9a41f" stroke="none" stroke-width="1" stroke-linecap="butt" stroke-linejoin="miter"/><path d="M229.6148,187.41417c-3.80143,-4.84225 -6.65245,-2.80578 -8.82468,-5.0233c-1.76496,-1.7649 -0.67884,-5.6568 3.84661,-3.98242c3.12259,1.17664 6.15465,6.69773 6.15465,6.69773c0.95036,1.44815 0.13581,3.98242 -1.17658,2.30799z" fill="none" stroke="#231f20" stroke-width="0.85737" stroke-linecap="round" stroke-linejoin="round"/></g><g><path d="M238.66576,194.29289c0,0 -5.15906,2.26275 -14.07426,2.48903c-8.68892,0.22628 -12.98814,-1.58391 -12.39982,-4.11818c0.67884,-3.07735 3.48462,-1.76496 5.3401,-1.40292c1.71967,0.22628 3.48457,0 5.11377,-0.72408l-0.04523,-2.35327c0.04523,-0.04523 16.60847,-2.44374 16.06544,6.10942z" fill="#f9a41f" stroke="none" stroke-width="1" stroke-linecap="butt" stroke-linejoin="miter"/><path d="M236.17672,192.79951c-0.36204,0.85983 -6.15465,2.48898 -9.50352,1.94595c-1.44815,-0.22628 -2.62474,-1.44815 -1.35763,-2.71531c1.90071,-1.94595 8.23636,-1.71967 8.23636,-1.71967z" fill="#ffffff" stroke="none" stroke-width="1" stroke-linecap="butt" stroke-linejoin="miter"/><path d="M238.66576,194.29289c0,0 -5.15906,2.26275 -14.07426,2.48903c-8.68892,0.22628 -12.98814,-1.1314 -12.39982,-4.11818c0.58832,-3.12259 3.48462,-1.71972 5.3401,-1.40292c1.62915,0.22628 3.25834,0.36204 4.88749,0.36204l0.18105,-3.43939c0.04523,-0.04523 16.60847,-2.44374 16.06544,6.10942z" fill="none" stroke="#231f20" stroke-width="0.85737" stroke-linecap="round" stroke-linejoin="round"/></g><g><g><path d="M250.43197,168.99545l5.47586,-3.71085l0.18099,6.69768c1.67443,1.44815 2.94154,3.30363 3.62038,5.43057c1.13135,3.52986 0.36204,6.06413 0.36204,6.06413c0,0 2.94154,0.95036 2.62479,5.0233c-0.58832,7.78385 -10.58963,11.04219 -21.94857,7.73856c-8.55316,-2.48898 -14.16473,-9.41299 -12.44506,-16.24643c1.53868,-6.15465 4.97801,-7.78385 4.97801,-7.78385l1.04088,-10.6801l6.42617,6.60716c1.62915,-0.40727 3.34887,-0.54303 5.0233,-0.31675c1.58391,0.22628 3.12253,0.63355 4.66121,1.17658z" fill="#f9a41f" stroke="none" stroke-width="1" stroke-linecap="butt" stroke-linejoin="miter"/><path d="M260.07125,183.47698c1.71967,0.67884 2.62479,1.71972 2.62479,5.0233c0.04523,4.38969 -6.15465,12.17354 -21.94857,7.73856c-5.38534,-1.49339 -10.77062,-5.15906 -7.42181,-12.03778c3.07735,-6.33564 12.35459,-0.04523 16.56329,0c4.16341,0 6.19989,-2.30799 10.18231,-0.72408z" fill="#ffffff" stroke="none" stroke-width="1" stroke-linecap="butt" stroke-linejoin="miter"/><g fill="none" stroke="#4f4f4f" stroke-width="0.85737" stroke-linecap="round" stroke-linejoin="round"><path d="M250.43197,168.99545l5.47586,-3.71085l0.18099,6.69768c1.67443,1.44815 2.94154,3.30363 3.62038,5.43057c1.13135,3.52986 0.36204,6.06413 0.36204,6.06413c0,0 2.94154,0.95036 2.62479,5.0233c-0.58832,7.78385 -10.58963,11.04219 -21.94857,7.73856c-8.55316,-2.48898 -14.16473,-9.41299 -12.44506,-16.24643c1.53868,-6.15465 4.97801,-7.78385 4.97801,-7.78385l1.04088,-10.6801l6.42617,6.60716c1.62915,-0.40727 3.34887,-0.54303 5.0233,-0.31675c1.58391,0.22628 3.12253,0.63355 4.66121,1.17658z"/></g></g><path d="M240.74746,168.13562l0.58832,0.63361" fill="none" stroke="#231f20" stroke-width="0.85737" stroke-linecap="round" stroke-linejoin="round"/></g><g fill="none" stroke="#231f20" stroke-width="0.85737" stroke-linecap="round" stroke-linejoin="round"><path d="M229.117,182.68751c0,0 -2.03647,-0.18105 -3.07735,-0.36204c-1.08611,-0.22628 -2.17223,-0.4978 -3.25834,-0.85983"/><path d="M223.50539,175.89925c1.17664,0.58832 2.26275,1.26716 3.25834,2.03647c1.04088,0.76936 2.03647,1.67443 2.94154,2.62479"/></g><g><path d="M258.53257,177.18657c1.08611,2.80584 0.4978,5.65685 -1.22187,6.3357c-1.7649,0.67879 -4.02766,-1.08611 -5.11377,-3.8919c-1.08611,-2.80584 -0.4978,-5.65685 1.22187,-6.3357c1.71967,-0.72408 4.02766,1.08611 5.11377,3.8919z" fill="#ffffff" stroke="#231f20" stroke-width="0.85737" stroke-linecap="round" stroke-linejoin="round"/><path d="M257.6275,178.72525c0,0.54308 -0.4978,0.99559 -1.04088,0.99559c-0.54303,0 -0.99559,-0.4978 -0.99559,-1.04083c0,-0.54308 0.40727,-0.95036 0.95036,-0.99564c0.58832,0 1.08611,0.49785 1.08611,1.04088v0" fill="#231f20" stroke="none" stroke-width="1" stroke-linecap="butt" stroke-linejoin="miter"/></g><g><path d="M244.91088,176.10046c1.08611,2.80584 0.27157,5.74738 -1.81019,6.51669c-2.08171,0.76936 -4.66121,-0.85983 -5.70209,-3.66562c-1.08611,-2.85107 -0.27152,-5.74738 1.81019,-6.51669c2.08171,-0.76931 4.66126,0.85983 5.70209,3.66562z" fill="#ffffff" stroke="#231f20" stroke-width="0.85737" stroke-linecap="round" stroke-linejoin="round"/><path d="M243.87005,177.77489c-0.18105,0.54308 -0.72408,0.85983 -1.26716,0.67884c-0.54303,-0.18105 -0.85983,-0.72408 -0.67879,-1.26716c0.13576,-0.4978 0.67879,-0.81455 1.17658,-0.67879c0.58832,0.09047 0.95036,0.67879 0.76936,1.26711v0" fill="#231f20" stroke="none" stroke-width="1" stroke-linecap="butt" stroke-linejoin="miter"/></g><g stroke="#231f20" stroke-width="0.85737" stroke-linecap="round" stroke-linejoin="round"><path d="M249.7079,182.84343c0.95036,0.09052 2.71531,-0.09052 2.62479,1.04088c-0.09052,0.4978 -1.40292,2.17223 -2.48903,1.99118c-1.08611,-0.18099 -2.85102,-1.81019 -2.5795,-2.67003c0.27152,-0.85983 1.58391,-0.45256 2.44374,-0.36204z" fill="#231f20"/><path d="M253.102,188.99808c-0.13576,1.1314 -7.6028,0.54308 -7.33123,-0.90507" fill="none"/></g><g><path d="M226.08489,189.47571c-0.36204,1.62915 -2.53427,2.80578 -4.79697,2.62479c-2.26275,-0.18105 -3.75614,-1.6292 -3.34887,-3.25834c0.40727,-1.6292 2.53427,-2.80584 4.79702,-2.67003c2.2627,0.18099 3.75614,1.67438 3.34881,3.30358z" fill="#f9a41f" stroke="none" stroke-width="1" stroke-linecap="butt" stroke-linejoin="miter"/><path d="M226.08489,189.47571c-0.36204,1.62915 -2.53427,2.80578 -4.79697,2.62479c-2.26275,-0.18105 -3.75614,-1.6292 -3.34887,-3.25834c0.40727,-1.6292 2.53427,-2.80584 4.79702,-2.67003c2.2627,0.18099 3.75614,1.67438 3.34881,3.30358z" fill="none" stroke="#231f20" stroke-width="0.85737" stroke-linecap="round" stroke-linejoin="round"/></g><g fill="none" stroke="#231f20" stroke-width="0.85737" stroke-linecap="round" stroke-linejoin="round"><path d="M268.3076,185.71957c-0.85983,0.45256 -1.81019,0.72408 -2.80578,0.85983c-1.35763,0.09052 -2.67003,0.13576 -3.98242,0.04523"/><path d="M266.58794,191.01439c-0.85983,-0.04529 -1.71967,-0.18105 -2.5795,-0.36204c-1.08611,-0.27157 -2.08176,-0.63361 -3.03206,-1.1314"/></g></g></g></svg>