<svg version="1.1" xmlns="http://www.w3.org/2000/svg" xmlns:xlink="http://www.w3.org/1999/xlink" width="170.55982" height="282.77076" viewBox="0,0,170.55982,282.77076"><g transform="translate(-139.63327,-170.38532)"><g data-paper-data="{&quot;isPaintingLayer&quot;:true}" fill-rule="nonzero" stroke="none" stroke-linecap="butt" stroke-linejoin="miter" stroke-miterlimit="10" stroke-dasharray="" stroke-dashoffset="0" style="mix-blend-mode: normal"><path d="M259.5,245.71423h16.3v192.4l-71.6,-0.7v-233.8h19.5v13.9h19v14.3h16.8v13.9" fill="#5acbf2" stroke-width="1"/><path d="M246,246.21423h6.5v9.6h-6.5z" fill="#d4eef4" stroke-width="1"/><path d="M246,266.21423h6.5v9.6h-6.5z" fill="#d4eef4" stroke-width="1"/><path d="M246,338.81423h6.5v9.6h-6.5z" fill="#d4eef4" stroke-width="1"/><path d="M230.2,297.31423h6.5v9.6h-6.5z" fill="#d4eef4" stroke-width="1"/><path d="M229.6,222.51423h6.5v9.6h-6.5z" fill="#d4eef4" stroke-width="1"/><path d="M230.8,269.21423h6.5v9.6h-6.5z" fill="#d4eef4" stroke-width="1"/><path d="M139.63327,453.15608v-277.19977h159.675v277.19977z" fill="none" stroke-width="0"/><path d="M192.5,438.03271v-242.23935h98v242.23935z" fill="none" stroke-width="0"/><path d="M164.54259,438.90299v-268.51767h145.6505v268.51767z" fill="none" stroke-width="0"/></g></g></svg>