<svg version="1.1" xmlns="http://www.w3.org/2000/svg" xmlns:xlink="http://www.w3.org/1999/xlink" width="151.34632" height="304.47415" viewBox="0,0,151.34632,304.47415"><g transform="translate(-163.7289,-95.52585)"><g data-paper-data="{&quot;isPaintingLayer&quot;:true}" fill-rule="nonzero" stroke-linecap="butt" stroke-linejoin="miter" stroke-miterlimit="10" stroke-dasharray="" stroke-dashoffset="0" style="mix-blend-mode: normal"><g stroke="none" stroke-width="1.62889"><g fill="#ffffff"><path d="M199.9789,157.1222h77.0467v207.0325h-77.0467z"/></g><g fill="#c3e8f3"><path d="M207.3089,193.1208h8.7961v157.1883h-8.7961z"/></g><g fill="#c3e8f3"><path d="M225.2268,193.1208h8.796v157.1883h-8.796z"/></g><g fill="#c3e8f3"><path d="M242.9817,193.1208h8.796v157.1883h-8.796z"/></g><g fill="#c3e8f3"><path d="M260.7367,193.1208h8.796v157.1883h-8.796z"/></g><g fill="#d1e6bb"><path d="M271.4874,184.4877h-64.9929v-19.3839h64.9929zM209.9152,181.067h58.1515v-12.5425h-58.1515z"/></g><g fill="#d1e6bb"><path d="M201.9336,190.6775h76.2322v3.4206h-76.2322z"/></g><g fill="#d1e6bb"><path d="M205.8429,191.9806h3.4207v172.1741h-3.4207z"/></g><g fill="#d1e6bb"><path d="M214.8018,191.9806h3.4207v172.1741h-3.4207z"/></g><g fill="#d1e6bb"><path d="M223.5979,191.9806h3.4206v172.1741h-3.4206z"/></g><g fill="#d1e6bb"><path d="M232.5568,191.9806h3.4207v172.1741h-3.4207z"/></g><g fill="#d1e6bb"><path d="M241.3528,191.9806h3.4207v172.1741h-3.4207z"/></g><g fill="#d1e6bb"><path d="M250.3117,191.9806h3.4207v172.1741h-3.4207z"/></g><g fill="#d1e6bb"><path d="M259.1078,191.9806h3.4206v172.1741h-3.4206z"/></g><g fill="#d1e6bb"><path d="M268.0667,191.9806h3.4207v172.1741h-3.4207z"/></g><g fill="#d1e6bb"><path d="M275.2338,157.1222h3.4207v207.6841h-3.4207z"/></g><g fill="#d1e6bb"><path d="M199.3273,157.1222h3.4207v207.6841h-3.4207z"/></g></g><path d="M278.6545,156.3078h-78.8385" fill="none" stroke="#d1e6bb" stroke-width="5.04778"/><path d="M169.5,400v-283h140v283z" fill="none" stroke="none" stroke-width="0"/><path d="M163.7289,364.85721v-269.33136h151.34632v269.33136z" fill="none" stroke="none" stroke-width="0"/></g></g></svg>