<svg version="1.1" xmlns="http://www.w3.org/2000/svg" xmlns:xlink="http://www.w3.org/1999/xlink" width="431" height="285" viewBox="0,0,431,285"><g transform="translate(13.5,-136.77093)"><g data-paper-data="{&quot;isPaintingLayer&quot;:true}" fill-rule="nonzero" stroke="none" stroke-linecap="butt" stroke-linejoin="miter" stroke-miterlimit="10" stroke-dasharray="" stroke-dashoffset="0" style="mix-blend-mode: normal"><path d="M176,245.9h128.1v132.1h-128.1z" fill="#e7f5f5" stroke-width="1"/><g fill="#a3def8" stroke-width="1"><g><path d="M182.6,251.5h115.6v3.1h-115.6z"/></g><g><path d="M182.3,253.5h3.1v14.5h-3.1z"/></g><g><path d="M189.8,253.5h3.1v14.5h-3.1z"/></g><g><path d="M197.3,253.5h3.1v14.5h-3.1z"/></g><g><path d="M204.8,253.5h3.1v14.5h-3.1z"/></g><g><path d="M212.2,253.5h3.1v14.5h-3.1z"/></g><g><path d="M219.7,253.5h3.1v14.5h-3.1z"/></g><g><path d="M227.2,253.5h3.1v14.5h-3.1z"/></g><g><path d="M234.7,253.5h3.1v14.5h-3.1z"/></g><g><path d="M182.6,273.5h3.1v14.5h-3.1z"/></g><g><path d="M190,273.5h3.1v14.5h-3.1z"/></g><g><path d="M197.5,273.5h3.1v14.5h-3.1z"/></g><g><path d="M205,273.5h3.1v14.5h-3.1z"/></g><g><path d="M212.5,273.5h3.1v14.5h-3.1z"/></g><g><path d="M219.9,273.5h3.1v14.5h-3.1z"/></g><g><path d="M227.4,273.5h3.1v14.5h-3.1z"/></g><g><path d="M234.9,273.5h3.1v14.5h-3.1z"/></g><g><path d="M182.6,292.2h3.1v14.5h-3.1z"/></g><g><path d="M190,292.2h3.1v14.5h-3.1z"/></g><g><path d="M197.5,292.2h3.1v14.5h-3.1z"/></g><g><path d="M205,292.2h3.1v14.5h-3.1z"/></g><g><path d="M212.5,292.2h3.1v14.5h-3.1z"/></g><g><path d="M219.9,292.2h3.1v14.5h-3.1z"/></g><g><path d="M227.4,292.2h3.1v14.5h-3.1z"/></g><g><path d="M234.9,292.2h3.1v14.5h-3.1z"/></g><g><path d="M242.1,253.5h3.1v14.5h-3.1z"/></g><g><path d="M249.6,253.5h3.1v14.5h-3.1z"/></g><g><path d="M257.1,253.5h3.1v14.5h-3.1z"/></g><g><path d="M264.6,253.5h3.1v14.5h-3.1z"/></g><g><path d="M272,253.5h3.1v14.5h-3.1z"/></g><g><path d="M279.5,253.5h3.1v14.5h-3.1z"/></g><g><path d="M287,253.5h3.1v14.5h-3.1z"/></g><g><path d="M294.5,253.5h3.1v14.5h-3.1z"/></g><g><path d="M242.4,273.5h3.1v14.5h-3.1z"/></g><g><path d="M249.8,273.5h3.1v14.5h-3.1z"/></g><g><path d="M257.3,273.5h3.1v14.5h-3.1z"/></g><g><path d="M264.8,273.5h3.1v14.5h-3.1z"/></g><g><path d="M272.3,273.5h3.1v14.5h-3.1z"/></g><g><path d="M279.7,273.5h3.1v14.5h-3.1z"/></g><g><path d="M287.2,273.5h3.1v14.5h-3.1z"/></g><g><path d="M294.7,273.5h3.1v14.5h-3.1z"/></g><g><path d="M242.4,292.2h3.1v14.5h-3.1z"/></g><g><path d="M249.8,292.2h3.1v14.5h-3.1z"/></g><g><path d="M257.3,292.2h3.1v14.5h-3.1z"/></g><g><path d="M264.8,292.2h3.1v14.5h-3.1z"/></g><g><path d="M272.3,292.2h3.1v14.5h-3.1z"/></g><g><path d="M279.7,292.2h3.1v14.5h-3.1z"/></g><g><path d="M287.2,292.2h3.1v14.5h-3.1z"/></g><g><path d="M294.7,292.2h3.1v14.5h-3.1z"/></g><g><path d="M182.3,310.9h3.1v14.5h-3.1z"/></g><g><path d="M189.8,310.9h3.1v14.5h-3.1z"/></g><g><path d="M197.3,310.9h3.1v14.5h-3.1z"/></g><g><path d="M204.8,310.9h3.1v14.5h-3.1z"/></g><g><path d="M212.2,310.9h3.1v14.5h-3.1z"/></g><g><path d="M219.7,310.9h3.1v14.5h-3.1z"/></g><g><path d="M227.2,310.9h3.1v14.5h-3.1z"/></g><g><path d="M234.7,310.9h3.1v14.5h-3.1z"/></g><g><path d="M182.6,330.9h3.1v14.5h-3.1z"/></g><g><path d="M190,330.9h3.1v14.5h-3.1z"/></g><g><path d="M197.5,330.9h3.1v14.5h-3.1z"/></g><g><path d="M205,330.9h3.1v14.5h-3.1z"/></g><g><path d="M212.5,330.9h3.1v14.5h-3.1z"/></g><g><path d="M219.9,330.9h3.1v14.5h-3.1z"/></g><g><path d="M227.4,330.9h3.1v14.5h-3.1z"/></g><g><path d="M234.9,330.9h3.1v14.5h-3.1z"/></g><g><path d="M182.6,349.5h3.1v14.5h-3.1z"/></g><g><path d="M190,349.5h3.1v14.5h-3.1z"/></g><g><path d="M197.5,349.5h3.1v14.5h-3.1z"/></g><g><path d="M205,349.5h3.1v14.5h-3.1z"/></g><g><path d="M212.5,349.5h3.1v14.5h-3.1z"/></g><g><path d="M219.9,349.5h3.1v14.5h-3.1z"/></g><g><path d="M227.4,349.5h3.1v14.5h-3.1z"/></g><g><path d="M234.9,349.5h3.1v14.5h-3.1z"/></g><g><path d="M242.1,310.9h3.1v14.5h-3.1z"/></g><g><path d="M249.6,310.9h3.1v14.5h-3.1z"/></g><g><path d="M257.1,310.9h3.1v14.5h-3.1z"/></g><g><path d="M264.6,310.9h3.1v14.5h-3.1z"/></g><g><path d="M272,310.9h3.1v14.5h-3.1z"/></g><g><path d="M279.5,310.9h3.1v14.5h-3.1z"/></g><g><path d="M287,310.9h3.1v14.5h-3.1z"/></g><g><path d="M294.5,310.9h3.1v14.5h-3.1z"/></g><g><path d="M242.4,330.9h3.1v14.5h-3.1z"/></g><g><path d="M249.8,330.9h3.1v14.5h-3.1z"/></g><g><path d="M257.3,330.9h3.1v14.5h-3.1z"/></g><g><path d="M264.8,330.9h3.1v14.5h-3.1z"/></g><g><path d="M272.3,330.9h3.1v14.5h-3.1z"/></g><g><path d="M279.7,330.9h3.1v14.5h-3.1z"/></g><g><path d="M287.2,330.9h3.1v14.5h-3.1z"/></g><g><path d="M294.7,330.9h3.1v14.5h-3.1z"/></g><g><path d="M242.4,349.5h3.1v14.5h-3.1z"/></g><g><path d="M249.8,349.5h3.1v14.5h-3.1z"/></g><g><path d="M257.3,349.5h3.1v14.5h-3.1z"/></g><g><path d="M264.8,349.5h3.1v14.5h-3.1z"/></g><g><path d="M272.3,349.5h3.1v14.5h-3.1z"/></g><g><path d="M279.7,349.5h3.1v14.5h-3.1z"/></g><g><path d="M287.2,349.5h3.1v14.5h-3.1z"/></g><g><path d="M294.7,349.5h3.1v14.5h-3.1z"/></g></g><path d="M92.52418,403.80318v-252.40551h261.82733v252.40551z" fill="none" stroke-width="0"/><path d="M-13.5,421.77093v-285h431v285z" fill="none" stroke-width="0"/><path d="M117.5,397v-180h246v180z" fill="none" stroke-width="0"/><path d="M166.16997,363.22983v-202.60879h145.6505v202.60879z" fill="none" stroke-width="0"/></g></g></svg>