<svg version="1.1" xmlns="http://www.w3.org/2000/svg" xmlns:xlink="http://www.w3.org/1999/xlink" width="16" height="16" viewBox="0,0,16,16"><g transform="translate(-232,-172)"><g data-paper-data="{&quot;isPaintingLayer&quot;:true}" fill-rule="nonzero" stroke="none" stroke-width="1" stroke-linecap="butt" stroke-linejoin="miter" stroke-miterlimit="10" stroke-dasharray="" stroke-dashoffset="0" style="mix-blend-mode: normal"><g><path d="M240,172c2.2,0 4.2,0.88571 5.65714,2.34286c1.45714,1.45714 2.34286,3.45714 2.34286,5.65714c0,2.2 -0.88571,4.2 -2.34286,5.65714c-1.45714,1.45714 -3.45714,2.34286 -5.65714,2.34286c-2.2,0 -4.2,-0.88571 -5.65714,-2.34286c-1.45714,-1.45714 -2.34286,-3.45714 -2.34286,-5.65714c0,-2.2 0.88571,-4.2 2.34286,-5.65714c1.45714,-1.45714 3.45714,-2.34286 5.65714,-2.34286z" fill="#faf0e6"/><path d="M243.11429,187.37143c-1.68571,-3.25714 -0.54286,-6.68571 -0.54286,-6.68571c0.97143,-3.05714 2.88571,-4.77143 3.8,-5.42857c1.02857,1.31429 1.62857,2.97143 1.62857,4.77143c0,3.28571 -1.97143,6.08571 -4.88571,7.34286z" fill="#f0e6d2"/></g><g fill="#f01446"><path d="M244.82857,176.37143l0.22857,-1.25714l0.2,0.05714l-0.14286,1l1.05714,0.02857v0.22857l-1.34286,-0.05714"/><path d="M243.71429,177.88571l-0.05714,-1.28571l0.22857,-0.02857l0.08571,1.02857l1.02857,-0.2l0.02857,0.22857l-1.31429,0.25714"/><path d="M243,179.48571l-0.42857,-1.2l0.25714,-0.05714l0.31429,0.94286l0.94286,-0.34286l0.05714,0.2l-1.14286,0.45714"/><path d="M242.17143,183l-0.74286,-1l0.17143,-0.14286l0.6,0.82857l0.8,-0.65714l0.14286,0.17143l-0.97143,0.8"/><path d="M242.22857,184.97143l-0.91429,-0.91429l0.2,-0.17143l0.68571,0.71429l0.68571,-0.71429l0.2,0.17143l-0.85714,0.91429"/><path d="M242.71429,186.68571l-1.05714,-0.71429l0.11429,-0.17143l0.85714,0.54286l0.51429,-0.85714l0.22857,0.11429l-0.65714,1.08571"/><path d="M242.45714,181.14286l-0.51429,-1.11429l0.22857,-0.11429l0.4,0.91429l0.91429,-0.45714l0.08571,0.2l-1.11429,0.57143"/><path d="M246.48571,175.37143c-1.02857,0.6 -1.88571,1.42857 -2.51429,2.45714c-2.14286,3.48571 -2,7.25714 -0.74286,9.54286c-0.05714,0.02857 -0.17143,0.05714 -0.22857,0.08571c-1.65714,-2.97143 -0.91429,-7.05714 0.77143,-9.77143c0.62857,-1.02857 1.51429,-1.91429 2.57143,-2.54286c0.02857,0.08571 0.08571,0.11429 0.14286,0.22857z"/></g><g fill="#f01446"><path d="M235.31429,183.74286l-0.2,1.25714l-0.22857,-0.02857l0.14286,-1l-1,-0.02857l0.02857,-0.22857l1.25714,0.02857"/><path d="M236.34286,182.28571l0.08571,1.25714h-0.22857l-0.05714,-0.97143l-1,0.17143l-0.02857,-0.22857l1.22857,-0.22857"/><path d="M237.05714,180.68571l0.37143,1.17143l-0.22857,0.05714l-0.28571,-0.91429l-0.88571,0.34286l-0.11429,-0.2l1.14286,-0.45714"/><path d="M237.8,177.22857l0.71429,0.97143l-0.17143,0.14286l-0.57143,-0.8l-0.71429,0.62857l-0.14286,-0.17143l0.88571,-0.77143"/><path d="M237.77143,175.28571l0.82857,0.88571l-0.14286,0.14286l-0.68571,-0.71429l-0.62857,0.71429l-0.2,-0.14286l0.82857,-0.88571"/><path d="M237.31429,173.57143l1,0.68571l-0.11429,0.2l-0.82857,-0.54286l-0.48571,0.8l-0.17143,-0.11429l0.6,-1.02857"/><path d="M237.54286,179.05714l0.48571,1.11429l-0.2,0.08571l-0.4,-0.91429l-0.85714,0.48571l-0.08571,-0.2l1.05714,-0.57143"/><path d="M236.71429,172.77143c0.08571,-0.02857 0.17143,-0.05714 0.22857,-0.08571c1.65714,2.91429 0.94286,7.05714 -0.65714,9.77143c-0.6,1.05714 -1.45714,1.94286 -2.51429,2.57143c-0.05714,-0.02857 -0.08571,-0.11429 -0.14286,-0.17143c1.02857,-0.6 1.91429,-1.45714 2.48571,-2.51429c2.08571,-3.48571 1.88571,-7.31429 0.6,-9.57143z"/></g></g></g></svg>